<?xml version='1.0' encoding='UTF-8' standalone='no'?>
<!-- Created with Fritzing (http://www.fritzing.org/) -->
<svg xmlns:svg='http://www.w3.org/2000/svg' xmlns='http://www.w3.org/2000/svg' version='1.2' baseProfile='tiny' x='0in' y='0in' width='8.59386in' height='6.05329in' viewBox='0 0 618.758 435.837' >
<g partID='154350'><g transform='translate(306.05,148.424)' ><g transform='matrix(0,1,-1,0,0,0)'  ><g  id="breadboard">
 <g  id="icon">
  <path  stroke="none" d="M0,0L0,41.04A2.16,2.16,0,0,1,0,45.36L0,86.4L43.322,86.4L43.322,0L0,0z" fill="#1F7A34" stroke-width="0"/>
  <g transform="matrix(1, 0, 0, 1, 7.2, 7.58146)">
   <g >
    <path  d="M28.922,69.759c0,0.55,-0.45,1,-1,1L1,70.759c-0.55,0,-1,-0.45,-1,-1L0,52.176c0,-0.55,0.45,-1,1,-1l26.922,0c0.55,0,1,0.45,1,1L28.922,69.759z" fill="#1A1A1A"/>
    <path  d="M28.922,52.017c0,0.55,-0.45,1,-1,1L1,53.017c-0.55,0,-1,-0.45,-1,-1L0,1c0,-0.55,0.45,-1,1,-1l26.922,0c0.55,0,1,0.45,1,1L28.922,52.017z" fill="#333333"/>
    <g >
     <circle  cx="10.462" cy="26.509" r="2.537" fill="#1A1A1A"/>
     <circle  cx="10.462" cy="26.77" r="0.596"/>
     <path  d="M10.462,24.496c1.312,0,2.376,0.999,2.511,2.274c0.00799999,-0.0869998,0.025,-0.172,0.025,-0.263c0,-1.399,-1.137,-2.536,-2.537,-2.536c-1.4,0,-2.537,1.137,-2.537,2.536c0,0.0910001,0.02,0.176,0.027,0.263C8.08502,25.495,9.14897,24.496,10.462,24.496z"/>
    </g>
    <g >
     <path  d="M4.41,21.249l-0.047,-0.342c0.219,-0.009,0.369,-0.05,0.449,-0.123s0.121,-0.174,0.121,-0.303c0,-0.0949997,-0.022,-0.177,-0.065,-0.246s-0.103,-0.117,-0.178,-0.143s-0.194,-0.039,-0.358,-0.039L2.359,20.053l0,-0.379L4.31,19.674c0.24,0,0.425,0.029,0.557,0.0869998s0.232,0.15,0.301,0.275s0.104,0.273,0.104,0.442c0,0.251,-0.072,0.444,-0.217,0.577S4.695,21.254,4.41,21.249z" fill="#808080"/>
     <path  d="M5.222,19.284L4.871,19.284l-1.834,-1.467c-0.13,-0.104,-0.244,-0.203,-0.34,-0.297l0,1.598L2.359,19.118l0,-2.051l0.338,0l1.986,1.607l0.201,0.174L4.884,17.02l0.338,0L5.222,19.284z" fill="#808080"/>
     <path  d="M4.219,14.569l0.0959998,-0.379c0.311,0.0799999,0.548,0.222,0.712,0.429s0.245,0.458,0.245,0.757001c0,0.309,-0.063,0.56,-0.188,0.752998s-0.308,0.34,-0.546,0.441s-0.494,0.151,-0.768002,0.151c-0.298,0,-0.558,-0.057,-0.779998,-0.171s-0.391,-0.276,-0.506,-0.486S2.31,15.622,2.31,15.37c0,-0.287,0.0730001,-0.527,0.219,-0.723002s0.351,-0.332,0.615,-0.408l0.0879998,0.373c-0.208,0.066,-0.36,0.163,-0.455,0.289s-0.143,0.285,-0.143,0.477c0,0.22,0.053,0.404,0.158,0.552s0.247,0.251,0.425,0.312s0.361,0.09,0.55,0.09c0.244,0,0.456,-0.036,0.638,-0.106s0.317,-0.181,0.407,-0.331s0.135,-0.312,0.135,-0.486c0,-0.212,-0.061,-0.392,-0.184,-0.539S4.459,14.621,4.219,14.569z" fill="#808080"/>
     <path  d="M4.363,13.905L4.01,13.905l0,-1.08l0.354,0L4.364,13.905z" fill="#808080"/>
     <path  d="M4.885,10.686l0.338,0l0,1.893c-0.0840002,0.002,-0.166,-0.011,-0.244,-0.041c-0.129,-0.048,-0.256,-0.125,-0.381,-0.231s-0.27,-0.259,-0.434,-0.46c-0.255,-0.311,-0.458,-0.521,-0.606,-0.631s-0.29,-0.164,-0.423,-0.164c-0.139,0,-0.257,0.05,-0.353,0.149s-0.144,0.229,-0.144,0.39c0,0.169,0.051,0.305,0.152,0.406s0.242,0.153,0.422,0.154l-0.037,0.361c-0.27,-0.025,-0.475,-0.118,-0.616,-0.279s-0.212,-0.378,-0.212,-0.65c0,-0.275,0.0760003,-0.492,0.229,-0.652s0.341,-0.24,0.566,-0.24c0.115,0,0.227,0.023,0.338,0.07s0.227,0.125,0.35,0.233s0.291,0.29,0.504,0.542c0.177,0.211,0.297,0.346,0.36,0.406s0.126,0.109,0.19,0.148L4.884,10.686z" fill="#808080"/>
     <path  d="M4.885,8.46202l0.338,0l0,1.893c-0.0840002,0.002,-0.166,-0.011,-0.244,-0.041c-0.129,-0.048,-0.256,-0.125,-0.381,-0.231s-0.27,-0.259,-0.434,-0.46C3.908,9.31097,3.706,9.10001,3.557,8.991s-0.29,-0.164,-0.423,-0.164c-0.139,0,-0.257,0.05,-0.353,0.149s-0.144,0.229,-0.144,0.39c0,0.169,0.051,0.305,0.152,0.406s0.242,0.153,0.422,0.154l-0.037,0.361c-0.27,-0.025,-0.475,-0.118,-0.616,-0.279S2.347,9.63,2.347,9.35798c0,-0.275,0.0760003,-0.492,0.229,-0.652s0.341,-0.24,0.566,-0.24c0.115,0,0.227,0.023,0.338,0.07S3.707,8.66002,3.83,8.76902s0.291,0.29,0.504,0.542c0.177,0.211,0.297,0.346,0.36,0.406s0.126,0.109,0.19,0.148L4.884,8.46202z" fill="#808080"/>
     <path  d="M5.222,7.92302L2.359,7.92302L2.359,5.991l0.338,0l0,1.553l0.886997,0L3.584,6.2l0.338,0l0,1.344l1.301,0L5.223,7.92302z" fill="#808080"/>
    </g>
    <g >
     <path  d="M15.821,24.369c-0.297,0,-0.535,-0.03,-0.715,-0.0910001c-0.181,-0.061,-0.32,-0.151,-0.418,-0.271s-0.147,-0.271,-0.147,-0.454c0,-0.135,0.027,-0.252,0.081,-0.354s0.132,-0.185,0.234,-0.251c0.102,-0.066,0.227,-0.118,0.373,-0.155s0.344,-0.057,0.592,-0.057c0.293,0,0.531,0.03,0.711,0.0910001c0.182,0.061,0.32,0.151,0.42,0.271c0.0979999,0.12,0.146,0.272,0.146,0.456c0,0.241,-0.0859997,0.431,-0.26,0.569C16.631,24.287,16.291,24.369,15.821,24.369zM15.821,24.053c0.411,0,0.685,-0.048,0.820001,-0.145c0.137,-0.0959998,0.205,-0.215,0.205,-0.356c0,-0.142,-0.068,-0.26,-0.205,-0.356s-0.41,-0.145,-0.820001,-0.145c-0.412,0,-0.687,0.048,-0.822002,0.145s-0.204,0.216,-0.204,0.359c0,0.142,0.06,0.254,0.18,0.339C15.127,24,15.408,24.053,15.821,24.053z" fill="#808080"/>
     <path  d="M16.76,20.807l0.296,0l0,1.656c-0.0740002,0.002,-0.146,-0.01,-0.214,-0.036c-0.113,-0.042,-0.224,-0.11,-0.333,-0.203s-0.235,-0.227,-0.38,-0.403c-0.223,-0.272,-0.4,-0.456,-0.53,-0.552s-0.253,-0.144,-0.37,-0.144c-0.121,0,-0.225,0.043,-0.308,0.131c-0.0840002,0.0869998,-0.126,0.201,-0.126,0.341c0,0.148,0.045,0.267,0.134,0.355c0.0889999,0.0889999,0.212,0.134,0.369,0.135l-0.032,0.316c-0.235,-0.021,-0.416,-0.103,-0.539,-0.244c-0.124,-0.142,-0.186,-0.331,-0.186,-0.569c0,-0.24,0.067,-0.431,0.2,-0.571c0.134,-0.14,0.299,-0.21,0.497,-0.21c0.1,0,0.198,0.021,0.295,0.062s0.199,0.109,0.307,0.205c0.106,0.0949997,0.254,0.253,0.439,0.474c0.156,0.185,0.261,0.303,0.316,0.355c0.055,0.052,0.11,0.0959998,0.166,0.13L16.761,20.807z" fill="#808080"/>
     <path  d="M17.056,19.49l-0.601,0l0,1.087l-0.281,0l-1.624,-1.144l0,-0.251l1.624,0l0,-0.338l0.281,0l0,0.338l0.601,0L17.056,19.49zM16.174,19.49l-1.129,0l1.129,0.784001L16.174,19.49z" fill="#808080"/>
     <path  d="M17.056,17.689l-2.505,0.970999l0,-0.358l1.821,-0.651c0.145,-0.052,0.281,-0.0959998,0.41,-0.132c-0.137,-0.039,-0.273,-0.0830002,-0.41,-0.135l-1.821,-0.677l0,-0.338l2.505,0.981L17.056,17.689z" fill="#808080"/>
     <path  d="M17.056,16.071l-2.505,0l0,-0.862999c0,-0.195,0.012,-0.344,0.036,-0.446c0.033,-0.144,0.0930002,-0.266,0.179,-0.367c0.112,-0.132,0.254,-0.231,0.428,-0.297S15.567,14,15.789,14c0.19,0,0.359,0.022,0.506,0.067c0.146,0.044,0.27,0.101,0.365,0.171c0.0959998,0.069,0.172,0.146,0.227,0.228c0.056,0.0830002,0.0979999,0.182,0.127,0.299c0.027,0.117,0.042,0.251,0.042,0.403L17.056,16.071zM16.76,15.74l0,-0.535c0,-0.165,-0.016,-0.294,-0.046,-0.389c-0.03,-0.0940003,-0.0740002,-0.169,-0.13,-0.225c-0.0779998,-0.0789998,-0.184,-0.14,-0.316,-0.184s-0.295,-0.066,-0.483,-0.066c-0.263,0,-0.464,0.043,-0.604,0.129s-0.235,0.191,-0.283,0.314c-0.034,0.0889999,-0.051,0.231,-0.051,0.429l0,0.526L16.76,15.739z" fill="#808080"/>
     <path  d="M16.178,11.756l0.0840002,-0.332c0.271,0.069,0.479,0.194,0.622,0.375s0.214,0.401,0.214,0.662c0,0.271,-0.055,0.49,-0.164,0.659c-0.109,0.169,-0.27,0.298,-0.479,0.386c-0.207,0.0879998,-0.432,0.132,-0.671,0.132c-0.261,0,-0.488,-0.05,-0.683,-0.149s-0.342,-0.242,-0.443,-0.426c-0.101,-0.184,-0.151,-0.386,-0.151,-0.607c0,-0.25,0.064,-0.461,0.191,-0.632c0.128,-0.171,0.307,-0.29,0.539,-0.357l0.0769997,0.326c-0.183,0.058,-0.315,0.143,-0.398,0.253s-0.125,0.25,-0.125,0.417c0,0.192,0.046,0.354,0.138,0.483c0.0920002,0.129,0.217,0.22,0.371,0.272c0.156,0.052,0.316,0.0789998,0.482,0.0789998c0.213,0,0.398,-0.031,0.557,-0.0930002c0.16,-0.062,0.278,-0.159,0.357,-0.29c0.0779998,-0.131,0.117,-0.273,0.117,-0.426c0,-0.186,-0.053,-0.343,-0.16,-0.472C16.547,11.888,16.389,11.801,16.178,11.756z" fill="#808080"/>
     <path  d="M16.304,11.174l-0.31,0l0,-0.945l0.31,0L16.304,11.174z" fill="#808080"/>
     <path  d="M17.056,8.81698l0,0.308l-1.96,0c0.07,0.0740002,0.141,0.171,0.211,0.291c0.071,0.12,0.125,0.229,0.16,0.324l-0.298,0c-0.081,-0.172,-0.179,-0.323,-0.294,-0.451c-0.115,-0.129,-0.227,-0.22,-0.335,-0.273L14.54,8.81698L17.056,8.81698z" fill="#808080"/>
     <path  d="M17.056,8.10403l-0.308,0L15.143,6.82c-0.113,-0.0910001,-0.212,-0.178,-0.296,-0.26l0,1.398l-0.296,0L14.551,6.164l0.296,0l1.738,1.407l0.176,0.152l0,-1.6l0.296,0L17.057,8.10403z" fill="#808080"/>
     <path  d="M21.1,25.659l-0.047,-0.352c0.199,-0.041,0.343,-0.109,0.431,-0.206s0.132,-0.215,0.132,-0.354c0,-0.166,-0.057,-0.305,-0.172,-0.419s-0.256,-0.171,-0.426,-0.171c-0.162,0,-0.295,0.053,-0.399,0.158s-0.157,0.24,-0.157,0.402c0,0.066,0.014,0.149,0.039,0.248l-0.309,-0.039c0.002,-0.023,0.004,-0.042,0.004,-0.057c0,-0.15,-0.039,-0.285,-0.117,-0.404s-0.199,-0.18,-0.361,-0.18c-0.129,0,-0.236,0.043,-0.32,0.131s-0.127,0.2,-0.127,0.338c0,0.137,0.043,0.25,0.129,0.342s0.215,0.15,0.387,0.176l-0.063,0.352c-0.236,-0.043,-0.418,-0.141,-0.548,-0.293s-0.194,-0.342,-0.194,-0.568c0,-0.156,0.033,-0.3,0.101,-0.432s0.159,-0.232,0.274,-0.302s0.238,-0.104,0.369,-0.104c0.123,0,0.236,0.033,0.338,0.1s0.182,0.165,0.242,0.295c0.039,-0.169,0.12,-0.301,0.243,-0.395s0.276,-0.141,0.462,-0.141c0.25,0,0.462,0.0910001,0.636,0.273s0.261,0.413,0.261,0.691c0,0.251,-0.0740002,0.46,-0.225,0.626S21.338,25.635,21.1,25.659z" fill="#808080"/>
     <path  d="M20.444,23.436c-0.338,0,-0.611,-0.035,-0.816998,-0.104s-0.366,-0.173,-0.478,-0.311s-0.168,-0.31,-0.168,-0.519c0,-0.154,0.031,-0.289,0.0930002,-0.404s0.151,-0.211,0.268,-0.287s0.259,-0.135,0.426,-0.178s0.394,-0.064,0.677,-0.064c0.336,0,0.607,0.035,0.813002,0.104s0.366,0.172,0.479,0.31s0.169,0.311,0.169,0.521c0,0.276,-0.1,0.493,-0.297,0.65C21.369,23.342,20.981,23.436,20.444,23.436zM20.444,23.075c0.471,0,0.783,-0.055,0.938002,-0.165s0.233,-0.246,0.233,-0.407s-0.0779998,-0.297,-0.234,-0.407s-0.469,-0.165,-0.938002,-0.165c-0.471,0,-0.785002,0.055,-0.939002,0.165s-0.232,0.247,-0.232,0.411c0,0.162,0.068,0.291,0.205,0.387C19.651,23.014,19.973,23.075,20.444,23.075z" fill="#808080"/>
     <path  d="M21.856,20.251l-2.863,1.109l0,-0.41l2.08,-0.743998c0.166,-0.06,0.322,-0.11,0.469,-0.15c-0.156,-0.044,-0.313,-0.0959998,-0.469,-0.154l-2.08,-0.772999l0,-0.387l2.863,1.121L21.856,20.251z" fill="#808080"/>
     <path  d="M21.856,18.401l-2.863,0l0,-0.985997c0,-0.223,0.014,-0.393,0.041,-0.51c0.037,-0.164,0.105,-0.304,0.205,-0.42c0.127,-0.151,0.291,-0.264,0.489,-0.339s0.425,-0.112,0.681,-0.112c0.217,0,0.41,0.025,0.578,0.0760003s0.307,0.116,0.417,0.195s0.196,0.167,0.26,0.261s0.11,0.208,0.144,0.342s0.049,0.287,0.049,0.46L21.857,18.401zM21.518,18.022l0,-0.611c0,-0.189,-0.018,-0.337,-0.053,-0.444s-0.0840002,-0.193,-0.148,-0.257c-0.09,-0.09,-0.211,-0.16,-0.362,-0.21s-0.335,-0.0750002,-0.552,-0.0750002c-0.299,0,-0.529,0.049,-0.69,0.147s-0.269,0.218,-0.323,0.358c-0.039,0.102,-0.059,0.265,-0.059,0.49l0,0.602L21.518,18.022z" fill="#808080"/>
     <path  d="M20.852,13.469l0.0959998,-0.379c0.311,0.0799999,0.549,0.222,0.712,0.429s0.245,0.458,0.245,0.757001c0,0.309,-0.063,0.56,-0.188,0.752998s-0.308,0.34,-0.546,0.441s-0.494,0.151,-0.768002,0.151c-0.299,0,-0.559,-0.057,-0.779998,-0.171s-0.391,-0.276,-0.506,-0.486s-0.173,-0.442,-0.173,-0.694c0,-0.287,0.072,-0.527,0.219,-0.723002s0.352,-0.332,0.615,-0.408l0.0879998,0.373c-0.209,0.066,-0.359,0.163,-0.455,0.289s-0.143,0.285,-0.143,0.477c0,0.22,0.053,0.404,0.158,0.552s0.247,0.251,0.425,0.312s0.36,0.09,0.55,0.09c0.244,0,0.456,-0.036,0.638,-0.106s0.317,-0.181,0.407,-0.331s0.135,-0.312,0.135,-0.486c0,-0.212,-0.061,-0.392,-0.184,-0.539S21.092,13.522,20.852,13.469z" fill="#808080"/>
     <path  d="M21.856,11.442l0,0.352l-2.24,0c0.0799999,0.0840002,0.162,0.196,0.242,0.333s0.141,0.261,0.182,0.37l-0.34,0c-0.0920002,-0.197,-0.205,-0.369,-0.336,-0.516s-0.26,-0.251,-0.383,-0.313l0,-0.227L21.856,11.441z" fill="#808080"/>
     <path  d="M20.444,10.542c-0.338,0,-0.611,-0.035,-0.816998,-0.104s-0.366,-0.173,-0.478,-0.311s-0.168,-0.31,-0.168,-0.519c0,-0.154,0.031,-0.289,0.0930002,-0.404s0.151,-0.211,0.268,-0.287s0.259,-0.135,0.426,-0.178s0.394,-0.064,0.677,-0.064c0.336,0,0.607,0.035,0.813002,0.104s0.366,0.172,0.479,0.31s0.169,0.311,0.169,0.521c0,0.276,-0.1,0.493,-0.297,0.65C21.369,10.448,20.981,10.542,20.444,10.542zM20.444,10.18c0.471,0,0.783,-0.055,0.938002,-0.165s0.233,-0.246,0.233,-0.407s-0.0779998,-0.297,-0.234,-0.407s-0.469,-0.165,-0.938002,-0.165c-0.471,0,-0.785002,0.055,-0.939002,0.165s-0.232,0.247,-0.232,0.411c0,0.162,0.068,0.291,0.205,0.387C19.651,10.12,19.973,10.18,20.444,10.18z" fill="#808080"/>
     <path  d="M21.856,8.48902l-2.863,-1.1L18.993,6.981l2.863,-1.172l0,0.432l-0.867002,0.334l0,1.197l0.867002,0.314L21.856,8.48902zM20.68,7.66303L20.68,6.692l-0.793001,0.299c-0.24,0.0910001,-0.439,0.159,-0.594,0.203c0.184,0.037,0.365,0.0879998,0.547,0.154L20.68,7.66303z" fill="#808080"/>
     <path  d="M26.319,33.305l0.338,0l0,1.893c-0.0850003,0.002,-0.166,-0.012,-0.244,-0.041c-0.129,-0.049,-0.256,-0.125,-0.381,-0.231s-0.27,-0.259,-0.434,-0.46c-0.256,-0.311,-0.458,-0.521,-0.607,-0.631c-0.148,-0.109,-0.289,-0.164,-0.422,-0.164c-0.14,0,-0.258,0.05,-0.354,0.149s-0.143,0.229,-0.143,0.39c0,0.17,0.051,0.305,0.152,0.406s0.242,0.152,0.422,0.154l-0.037,0.361c-0.27,-0.025,-0.476,-0.117,-0.617,-0.279c-0.141,-0.162,-0.211,-0.379,-0.211,-0.65c0,-0.275,0.0760003,-0.492,0.229,-0.652s0.341,-0.24,0.566,-0.24c0.114,0,0.227,0.023,0.338,0.07c0.11,0.047,0.227,0.125,0.35,0.233c0.122,0.108,0.29,0.29,0.504,0.542c0.177,0.211,0.297,0.346,0.359,0.406c0.063,0.061,0.127,0.109,0.191,0.148L26.318,33.305z" fill="#808080"/>
     <path  d="M26.319,31.081l0.338,0l0,1.893c-0.0850003,0.002,-0.166,-0.012,-0.244,-0.041c-0.129,-0.049,-0.256,-0.125,-0.381,-0.231s-0.27,-0.259,-0.434,-0.46c-0.256,-0.311,-0.458,-0.521,-0.607,-0.631c-0.148,-0.109,-0.289,-0.164,-0.422,-0.164c-0.14,0,-0.258,0.05,-0.354,0.149s-0.143,0.229,-0.143,0.39c0,0.17,0.051,0.305,0.152,0.406s0.242,0.152,0.422,0.154l-0.037,0.361c-0.27,-0.025,-0.476,-0.117,-0.617,-0.279c-0.141,-0.162,-0.211,-0.379,-0.211,-0.65c0,-0.275,0.0760003,-0.492,0.229,-0.652s0.341,-0.24,0.566,-0.24c0.114,0,0.227,0.023,0.338,0.07c0.11,0.047,0.227,0.125,0.35,0.233c0.122,0.108,0.29,0.29,0.504,0.542c0.177,0.211,0.297,0.346,0.359,0.406c0.063,0.061,0.127,0.109,0.191,0.148L26.318,31.081z" fill="#808080"/>
     <path  d="M25.244,30.704c-0.339,0,-0.611,-0.035,-0.817999,-0.104c-0.206,-0.069,-0.365,-0.173,-0.477,-0.311c-0.112,-0.138,-0.168,-0.31,-0.168,-0.519c0,-0.154,0.03,-0.289,0.0920002,-0.404c0.063,-0.115,0.151,-0.211,0.268,-0.287c0.117,-0.0760003,0.259,-0.135,0.426,-0.178c0.168,-0.043,0.394,-0.064,0.678,-0.064c0.336,0,0.606,0.035,0.813002,0.104c0.207,0.068,0.366,0.172,0.479,0.31c0.113,0.138,0.17,0.312,0.17,0.521c0,0.275,-0.1,0.492,-0.297,0.65C26.17,30.61,25.781,30.704,25.244,30.704zM25.244,30.343c0.47,0,0.781999,-0.055,0.938002,-0.165c0.156,-0.11,0.234,-0.245,0.234,-0.407s-0.0779998,-0.297,-0.234,-0.407s-0.469,-0.165,-0.938002,-0.165c-0.472,0,-0.785002,0.055,-0.939002,0.165c-0.155,0.11,-0.232,0.247,-0.232,0.411c0,0.162,0.068,0.291,0.205,0.387C24.451,30.282,24.774,30.343,25.244,30.343z" fill="#808080"/>
     <path  d="M26.705,28.645l-2.961,-0.830002l0,-0.281l2.961,0.828L26.705,28.645z" fill="#808080"/>
     <path  d="M26.319,25.52l0.338,0l0,1.893c-0.0850003,0.002,-0.166,-0.012,-0.244,-0.041c-0.129,-0.049,-0.256,-0.125,-0.381,-0.231s-0.27,-0.259,-0.434,-0.46c-0.256,-0.311,-0.458,-0.521,-0.607,-0.631c-0.148,-0.109,-0.289,-0.164,-0.422,-0.164c-0.14,0,-0.258,0.05,-0.354,0.149s-0.143,0.229,-0.143,0.39c0,0.169,0.051,0.305,0.152,0.406s0.242,0.153,0.422,0.154l-0.037,0.361c-0.27,-0.025,-0.476,-0.117,-0.617,-0.279c-0.141,-0.162,-0.211,-0.378,-0.211,-0.65c0,-0.275,0.0760003,-0.492,0.229,-0.652s0.341,-0.24,0.566,-0.24c0.114,0,0.227,0.023,0.338,0.07c0.11,0.047,0.227,0.125,0.35,0.233c0.122,0.109,0.29,0.29,0.504,0.542c0.177,0.211,0.297,0.346,0.359,0.406c0.063,0.06,0.127,0.109,0.191,0.148L26.318,25.52z" fill="#808080"/>
     <path  d="M25.906,25.143l-0.031,-0.369c0.18,-0.027,0.314,-0.0910001,0.404,-0.19c0.0910001,-0.1,0.137,-0.22,0.137,-0.36c0,-0.169,-0.064,-0.313,-0.191,-0.43c-0.128,-0.117,-0.297,-0.176,-0.508,-0.176c-0.201,0,-0.359,0.056,-0.475,0.169c-0.116,0.113,-0.174,0.26,-0.174,0.442c0,0.113,0.025,0.215,0.0760003,0.307c0.052,0.0910001,0.119,0.163,0.201,0.215l-0.043,0.33l-1.471,-0.277L23.831,23.38l0.336,0l0,1.143l0.769997,0.154c-0.12,-0.172,-0.18,-0.352,-0.18,-0.541c0,-0.25,0.0859997,-0.461,0.26,-0.633c0.173,-0.172,0.396,-0.258,0.668,-0.258c0.259,0,0.482,0.0760003,0.672,0.227c0.231,0.184,0.348,0.434,0.348,0.751997c0,0.26,-0.0730001,0.473,-0.219,0.638C26.34,25.026,26.147,25.12,25.906,25.143z" fill="#808080"/>
     <path  d="M25.244,22.919c-0.339,0,-0.611,-0.035,-0.817999,-0.104c-0.206,-0.07,-0.365,-0.173,-0.477,-0.311c-0.112,-0.137,-0.168,-0.31,-0.168,-0.519c0,-0.154,0.03,-0.289,0.0920002,-0.404c0.063,-0.116,0.151,-0.211,0.268,-0.287c0.117,-0.0760003,0.259,-0.135,0.426,-0.178c0.168,-0.043,0.394,-0.064,0.678,-0.064c0.336,0,0.606,0.035,0.813002,0.104c0.207,0.069,0.366,0.172,0.479,0.31c0.113,0.137,0.17,0.311,0.17,0.521c0,0.276,-0.1,0.493,-0.297,0.65C26.17,22.824,25.781,22.919,25.244,22.919zM25.244,22.557c0.47,0,0.781999,-0.055,0.938002,-0.165c0.156,-0.11,0.234,-0.246,0.234,-0.407s-0.0779998,-0.297,-0.234,-0.407s-0.469,-0.165,-0.938002,-0.165c-0.472,0,-0.785002,0.055,-0.939002,0.165c-0.155,0.11,-0.232,0.247,-0.232,0.411c0,0.162,0.068,0.291,0.205,0.387C24.451,22.497,24.774,22.557,25.244,22.557z" fill="#808080"/>
     <path  d="M26.656,19.733l-2.863,1.109l0,-0.41l2.08,-0.743998c0.166,-0.06,0.322,-0.11,0.469,-0.15c-0.156,-0.044,-0.313,-0.0959998,-0.469,-0.154l-2.08,-0.772999l0,-0.387l2.863,1.121L26.656,19.733z" fill="#808080"/>
     <path  d="M26.656,18.495l-2.863,-1.1l0,-0.408l2.863,-1.172l0,0.432l-0.867002,0.334l0,1.197l0.867002,0.314L26.656,18.495zM25.481,17.669l0,-0.970999l-0.793001,0.299c-0.241,0.0910001,-0.439,0.159,-0.594,0.203c0.184,0.037,0.365,0.0879998,0.547,0.154L25.481,17.669z" fill="#808080"/>
     <path  d="M25.653,13.469l0.0959998,-0.379c0.311,0.0799999,0.548,0.222,0.711,0.429c0.164,0.207,0.246,0.458,0.246,0.757001c0,0.309,-0.063,0.56,-0.189,0.752998c-0.125,0.193,-0.307,0.34,-0.545,0.441s-0.494,0.151,-0.768002,0.151c-0.299,0,-0.559,-0.057,-0.780998,-0.171c-0.222,-0.114,-0.391,-0.276,-0.506,-0.486s-0.172,-0.442,-0.172,-0.694c0,-0.287,0.072,-0.527,0.219,-0.723002c0.146,-0.195,0.351,-0.332,0.615,-0.408l0.0879998,0.373c-0.209,0.066,-0.36,0.163,-0.455,0.289c-0.0959998,0.126,-0.143,0.285,-0.143,0.477c0,0.22,0.053,0.404,0.158,0.552s0.246,0.251,0.424,0.312s0.361,0.09,0.551,0.09c0.243,0,0.455,-0.036,0.637,-0.106s0.318,-0.181,0.408,-0.331s0.135,-0.312,0.135,-0.486c0,-0.212,-0.062,-0.392,-0.184,-0.539C26.074,13.621,25.893,13.522,25.653,13.469z" fill="#808080"/>
     <path  d="M26.656,11.442l0,0.352l-2.24,0c0.0799999,0.0840002,0.161,0.196,0.242,0.333c0.0799999,0.137,0.141,0.261,0.182,0.37L24.5,12.497c-0.0930002,-0.197,-0.205,-0.369,-0.336,-0.516c-0.132,-0.147,-0.26,-0.251,-0.383,-0.313l0,-0.227L26.656,11.441z" fill="#808080"/>
     <path  d="M25.244,10.542c-0.339,0,-0.611,-0.035,-0.817999,-0.104c-0.206,-0.07,-0.365,-0.173,-0.477,-0.311c-0.112,-0.137,-0.168,-0.31,-0.168,-0.519c0,-0.154,0.03,-0.289,0.0920002,-0.404c0.063,-0.116,0.151,-0.211,0.268,-0.287c0.117,-0.0760003,0.259,-0.135,0.426,-0.178c0.168,-0.043,0.394,-0.064,0.678,-0.064c0.336,0,0.606,0.035,0.813002,0.104c0.207,0.069,0.366,0.172,0.479,0.31c0.113,0.137,0.17,0.311,0.17,0.521c0,0.276,-0.1,0.493,-0.297,0.65C26.17,10.448,25.781,10.542,25.244,10.542zM25.244,10.18c0.47,0,0.781999,-0.055,0.938002,-0.165c0.156,-0.11,0.234,-0.246,0.234,-0.407s-0.0779998,-0.297,-0.234,-0.407s-0.469,-0.165,-0.938002,-0.165c-0.472,0,-0.785002,0.055,-0.939002,0.165c-0.155,0.11,-0.232,0.247,-0.232,0.411c0,0.162,0.068,0.291,0.205,0.387C24.451,10.12,24.774,10.18,25.244,10.18z" fill="#808080"/>
     <path  d="M26.656,8.48902l-2.863,-1.1L23.793,6.981l2.863,-1.172l0,0.432l-0.867002,0.334l0,1.197l0.867002,0.314L26.656,8.48902zM25.481,7.66303L25.481,6.692l-0.793001,0.299c-0.241,0.0910001,-0.439,0.159,-0.594,0.203c0.184,0.037,0.365,0.0879998,0.547,0.154L25.481,7.66303z" fill="#808080"/>
    </g>
    <g >
     <path  d="M16.037,33.213c0,-0.216,0.057,-0.428,0.168,-0.634c0.11,-0.207,0.27,-0.367,0.477,-0.482s0.422,-0.172,0.646,-0.172c0.223,0,0.436,0.057,0.641,0.17s0.365,0.271,0.479,0.477s0.17,0.418,0.17,0.642s-0.057,0.437,-0.17,0.642s-0.273,0.363,-0.479,0.479c-0.205,0.113,-0.418,0.17,-0.641,0.17c-0.225,0,-0.439,-0.058,-0.646,-0.174c-0.207,-0.115,-0.366,-0.275,-0.477,-0.482C16.094,33.64,16.037,33.428,16.037,33.213zM16.252,33.213c0,0.181,0.046,0.357,0.139,0.528c0.0930002,0.172,0.226,0.307,0.398,0.402c0.172,0.0979999,0.352,0.146,0.539,0.146c0.186,0,0.363,-0.048,0.534,-0.143c0.171,-0.0959998,0.303,-0.229,0.397,-0.4c0.0959998,-0.17,0.143,-0.349,0.143,-0.534s-0.047,-0.364,-0.143,-0.534c-0.0949997,-0.172,-0.227,-0.305,-0.397,-0.398c-0.171,-0.0959998,-0.349,-0.143,-0.534,-0.143c-0.188,0,-0.367,0.049,-0.539,0.145c-0.173,0.0959998,-0.306,0.23,-0.398,0.402S16.252,33.032,16.252,33.213zM18.041,33.778l-1.389,0l0,-0.477c0,-0.163,0.014,-0.281,0.039,-0.354c0.025,-0.0730001,0.07,-0.131,0.135,-0.174c0.063,-0.044,0.131,-0.066,0.203,-0.066c0.102,0,0.189,0.037,0.265,0.109s0.117,0.168,0.126,0.287c0.021,-0.049,0.045,-0.0879998,0.0740002,-0.117c0.055,-0.056,0.146,-0.124,0.275,-0.205l0.271,-0.17l0,0.273l-0.219,0.123c-0.172,0.0979999,-0.279,0.176,-0.323,0.234c-0.032,0.041,-0.048,0.102,-0.048,0.18l0,0.132l0.59,0L18.04,33.778zM17.26,33.554l0,-0.272c0,-0.129,-0.02,-0.218,-0.059,-0.266c-0.038,-0.047,-0.09,-0.07,-0.153,-0.07c-0.041,0,-0.0769997,0.012,-0.11,0.034c-0.032,0.022,-0.057,0.054,-0.072,0.0949997s-0.023,0.115,-0.023,0.225l0,0.255L17.26,33.555z" fill="#808080"/>
     <path  d="M19.08,33.735l0,-0.331l1.447,0c0.252,0,0.453,0.028,0.601,0.0850003c0.147,0.058,0.269,0.16,0.361,0.309s0.14,0.344,0.14,0.586c0,0.234,-0.041,0.426,-0.121,0.576c-0.0820001,0.148,-0.198,0.256,-0.352,0.318c-0.153,0.064,-0.363,0.0959998,-0.629,0.0959998L19.08,35.374l0,-0.33l1.446,0c0.218,0,0.378,-0.021,0.481,-0.062c0.103,-0.04,0.182,-0.11,0.238,-0.208c0.056,-0.1,0.0840002,-0.219,0.0840002,-0.361c0,-0.244,-0.056,-0.418,-0.166,-0.521c-0.111,-0.104,-0.323,-0.156,-0.638,-0.156L19.08,33.736z" fill="#808080"/>
     <path  d="M20.781,32.966l-0.027,-0.313c0.125,-0.016,0.229,-0.05,0.309,-0.104c0.0799999,-0.055,0.145,-0.139,0.194,-0.252c0.05,-0.115,0.0750002,-0.242,0.0750002,-0.385c0,-0.127,-0.02,-0.238,-0.057,-0.336c-0.038,-0.0959998,-0.09,-0.168,-0.155,-0.216s-0.137,-0.071,-0.214,-0.071c-0.0789998,0,-0.148,0.023,-0.207,0.068c-0.059,0.046,-0.107,0.121,-0.146,0.227c-0.027,0.066,-0.068,0.215,-0.123,0.445s-0.107,0.392,-0.156,0.484c-0.063,0.119,-0.141,0.209,-0.233,0.268s-0.196,0.0879998,-0.312,0.0879998c-0.127,0,-0.245,-0.037,-0.355,-0.107c-0.109,-0.072,-0.193,-0.178,-0.25,-0.314c-0.057,-0.139,-0.0859997,-0.292,-0.0859997,-0.461c0,-0.186,0.031,-0.35,0.09,-0.49c0.061,-0.143,0.148,-0.252,0.265,-0.328s0.247,-0.117,0.396,-0.123l0.023,0.318c-0.158,0.018,-0.278,0.0740002,-0.359,0.174c-0.0799999,0.0979999,-0.121,0.244,-0.121,0.436c0,0.201,0.037,0.348,0.11,0.439s0.162,0.137,0.266,0.137c0.09,0,0.164,-0.032,0.222,-0.0979999c0.059,-0.063,0.118,-0.23,0.18,-0.5c0.061,-0.27,0.113,-0.453,0.159,-0.555c0.067,-0.145,0.152,-0.253,0.255,-0.322c0.104,-0.069,0.223,-0.104,0.357,-0.104c0.133,0,0.258,0.037,0.377,0.113c0.117,0.0760003,0.209,0.187,0.274,0.33c0.065,0.143,0.099,0.303,0.099,0.482c0,0.227,-0.033,0.416,-0.1,0.57c-0.066,0.152,-0.165,0.273,-0.298,0.359C21.099,32.915,20.949,32.961,20.781,32.966z" fill="#808080"/>
    </g>
    <g >
     <g >
      <g >
       <path  d="M15.895,46.539c-0.104,0,-0.207,-0.036,-0.287,-0.104c-0.104,-0.0859997,-0.166,-0.213,-0.166,-0.35l0,-3.088c0,-0.235,0.18,-0.431,0.415,-0.452l4.971,-0.417l0,-1.533c0,-0.012,0,-0.029,-0.037,-0.065c-0.156,-0.151,-0.558,-0.239,-0.760997,-0.232l-4.101,0.326c-0.248,0.02,-0.467,-0.166,-0.486,-0.416c-0.02,-0.248,0.167,-0.466,0.415,-0.485l4.123,-0.326c0.381,-0.012,1.049,0.106,1.438,0.485c0.204,0.198,0.313,0.444,0.313,0.714l0,1.949c0,0.235,-0.181,0.432,-0.414,0.452l-2.334,0.194l2.581,2.092c0.193,0.157,0.224,0.441,0.066,0.636s-0.441,0.225,-0.637,0.066l-2.352,-1.906l0,1.555c0,0.217,-0.153,0.402,-0.365,0.443l-2.296,0.453C15.952,46.536,15.924,46.539,15.895,46.539zM16.347,43.413l0,2.125l1.392,-0.276l0,-1.965L16.347,43.413z" fill="#808080"/>
      </g>
     </g>
    </g>
    <g >
     <path  d="M25.098,46.085c-0.053,0.146,-0.129,0.254,-0.229,0.324c-0.099,0.07,-0.217,0.105,-0.355,0.105c-0.208,0,-0.383,-0.0740002,-0.525,-0.225c-0.142,-0.15,-0.213,-0.35,-0.213,-0.598c0,-0.25,0.0730001,-0.451,0.219,-0.604c0.145,-0.152,0.321,-0.229,0.529,-0.229c0.133,0,0.249,0.035,0.348,0.104c0.0979999,0.069,0.174,0.175,0.227,0.317c0.058,-0.176,0.15,-0.31,0.277,-0.401c0.128,-0.0920002,0.28,-0.138,0.457,-0.138c0.245,0,0.451,0.0859997,0.617,0.26c0.167,0.174,0.25,0.4,0.25,0.684s-0.0830002,0.51,-0.25,0.684c-0.168,0.174,-0.377,0.26,-0.627,0.26c-0.186,0,-0.342,-0.047,-0.467,-0.142C25.23,46.393,25.144,46.259,25.098,46.085zM24.502,46.155c0.136,0,0.246,-0.043,0.332,-0.131s0.129,-0.201,0.129,-0.34c0,-0.135,-0.042,-0.246,-0.127,-0.333c-0.0859997,-0.0869998,-0.19,-0.13,-0.314,-0.13c-0.129,0,-0.236,0.045,-0.324,0.134s-0.133,0.2,-0.133,0.333c0,0.135,0.043,0.246,0.129,0.334S24.383,46.155,24.502,46.155zM25.824,46.268c0.101,0,0.197,-0.023,0.291,-0.071s0.167,-0.118,0.219,-0.212c0.051,-0.0940003,0.0760003,-0.195,0.0760003,-0.303c0,-0.168,-0.054,-0.307,-0.162,-0.416c-0.107,-0.109,-0.245,-0.164,-0.412,-0.164c-0.169,0,-0.309,0.057,-0.42,0.169c-0.11,0.112,-0.166,0.253,-0.166,0.423c0,0.166,0.055,0.303,0.164,0.411S25.66,46.268,25.824,46.268z" fill="#808080"/>
     <path  d="M25.901,44.401l-0.031,-0.369c0.18,-0.027,0.315,-0.0910001,0.406,-0.19c0.09,-0.1,0.135,-0.22,0.135,-0.36c0,-0.17,-0.063,-0.313,-0.191,-0.43c-0.127,-0.117,-0.297,-0.176,-0.508,-0.176c-0.2,0,-0.358,0.057,-0.475,0.169c-0.115,0.112,-0.174,0.261,-0.174,0.442c0,0.113,0.026,0.215,0.0779998,0.307c0.051,0.0920002,0.117,0.162,0.199,0.215l-0.043,0.33l-1.471,-0.277l0,-1.424l0.336,0l0,1.143l0.769997,0.154c-0.119,-0.172,-0.18,-0.352,-0.18,-0.541c0,-0.25,0.0869998,-0.461,0.26,-0.633c0.174,-0.172,0.396,-0.258,0.668,-0.258c0.26,0,0.483,0.0760003,0.672,0.227c0.232,0.184,0.348,0.434,0.348,0.751997c0,0.26,-0.072,0.473,-0.219,0.638C26.335,44.284,26.142,44.378,25.901,44.401z" fill="#808080"/>
     <path  d="M24.28,42.093c-0.149,0,-0.277,-0.053,-0.383,-0.159s-0.158,-0.233,-0.158,-0.382c0,-0.15,0.053,-0.279,0.158,-0.385s0.233,-0.158,0.383,-0.158c0.15,0,0.278,0.053,0.385,0.159c0.105,0.106,0.158,0.233,0.158,0.384c0,0.148,-0.053,0.275,-0.158,0.382S24.431,42.093,24.28,42.093zM24.28,41.88c0.0920002,0,0.17,-0.032,0.234,-0.0969998s0.0959998,-0.142,0.0959998,-0.233c0,-0.09,-0.031,-0.167,-0.0959998,-0.231s-0.143,-0.0969998,-0.234,-0.0969998c-0.0910001,0,-0.168,0.032,-0.232,0.0969998s-0.0979999,0.142,-0.0979999,0.231c0,0.0920002,0.033,0.169,0.0979999,0.233S24.189,41.88,24.28,41.88z" fill="#808080"/>
     <path  d="M25.647,38.391l0.0959998,-0.379c0.312,0.0799999,0.549,0.223,0.713,0.429c0.163,0.206,0.244,0.458,0.244,0.757001c0,0.309,-0.063,0.56,-0.188,0.752998c-0.126,0.193,-0.309,0.341,-0.547,0.441s-0.494,0.151,-0.768002,0.151c-0.298,0,-0.558,-0.057,-0.778997,-0.171c-0.223,-0.114,-0.391,-0.276,-0.506,-0.486s-0.174,-0.442,-0.174,-0.694c0,-0.287,0.0730001,-0.527,0.219,-0.723002c0.146,-0.195,0.352,-0.332,0.615,-0.408l0.0879998,0.373c-0.208,0.066,-0.359,0.162,-0.455,0.289c-0.0949997,0.127,-0.143,0.285,-0.143,0.477c0,0.221,0.053,0.404,0.158,0.552s0.248,0.251,0.426,0.312s0.36,0.09,0.549,0.09c0.244,0,0.457,-0.035,0.639,-0.106s0.316,-0.181,0.406,-0.331s0.135,-0.313,0.135,-0.486c0,-0.213,-0.061,-0.393,-0.184,-0.539C26.07,38.544,25.888,38.444,25.647,38.391z" fill="#808080"/>
    </g>
    <rect  width="0.596" x="3.324" y="70.759" height="0.479" fill="#CCCCCC"/>
    <rect  width="0.596" x="24.711" y="70.759" height="0.479" fill="#CCCCCC"/>
    <g >
     <path  d="M0,69.618c0,0.55,0.45,1,1,1l26.922,0c0.55,0,1,-0.45,1,-1l0,0.141c0,0.55,-0.45,1,-1,1L1,70.759c-0.55,0,-1,-0.45,-1,-1L0,69.618z"/>
     <path  opacity="0.3" d="M0,1.134c0,-0.55,0.45,-1,1,-1l26.922,0c0.55,0,1,0.45,1,1L28.922,1c0,-0.55,-0.45,-1,-1,-1L1,0C0.45,0,0,0.45,0,1L0,1.134z" fill="#FFFFFF"/>
     <path  opacity="0.3" d="M28.922,52.151c0,0.55,-0.45,1,-1,1L1,53.151c-0.55,0,-1,-0.45,-1,-1l0,-0.134c0,0.55,0.45,1,1,1l26.922,0c0.55,0,1,-0.45,1,-1L28.922,52.151z" fill="#FFFFFF"/>
    </g>
   </g>
  </g>
 </g>
 <g transform="matrix(1, 0, 0, 1, 13.3115, 81.6516)">
  <g >
   <rect  width="2.29896" x="0" y="0" height="2.2968" fill="#8D8C8C" id="connector0pin"/>
   <rect  width="1.18398" x="0.56099" y="0.556952" height="1.18189" fill="#8C8663"/>
   <polygon  points="0,2.2968,0.56099,1.73785,0.56099,0.501957,0,0" fill="#B8AF82"/>
   <polygon  points="1.74297,0.558951,0.56899,0.558951,0,0,2.29896,0" fill="#80795B"/>
   <polygon  points="1.74297,1.73785,1.74297,0.558951,2.29896,0,2.29896,2.2968" fill="#5E5B43"/>
   <polygon  points="0,2.2968,0.56699,1.73785,1.74297,1.73785,2.29896,2.2968" fill="#9A916C"/>
  </g>
 </g>
 <g transform="matrix(1, 0, 0, 1, 20.5115, 81.6516)">
  <g >
   <rect  width="2.29896" x="0" y="0" height="2.2968" fill="#8D8C8C" id="connector1pin"/>
   <rect  width="1.18398" x="0.56099" y="0.556952" height="1.18189" fill="#8C8663"/>
   <polygon  points="0,2.2968,0.56099,1.73785,0.56099,0.501957,0,0" fill="#B8AF82"/>
   <polygon  points="1.74297,0.558951,0.56899,0.558951,0,0,2.29896,0" fill="#80795B"/>
   <polygon  points="1.74297,1.73785,1.74297,0.558951,2.29896,0,2.29896,2.2968" fill="#5E5B43"/>
   <polygon  points="0,2.2968,0.56699,1.73785,1.74297,1.73785,2.29896,2.2968" fill="#9A916C"/>
  </g>
 </g>
 <g transform="matrix(1, 0, 0, 1, 20.5115, 2.4516)">
  <g >
   <rect  width="2.29896" x="0" y="0" height="2.2968" fill="#8D8C8C" id="connector4pin"/>
   <rect  width="1.18398" x="0.56099" y="0.556952" height="1.18189" fill="#8C8663"/>
   <polygon  points="0,2.2968,0.56099,1.73785,0.56099,0.501957,0,0" fill="#B8AF82"/>
   <polygon  points="1.74297,0.558951,0.56899,0.558951,0,0,2.29896,0" fill="#80795B"/>
   <polygon  points="1.74297,1.73785,1.74297,0.558951,2.29896,0,2.29896,2.2968" fill="#5E5B43"/>
   <polygon  points="0,2.2968,0.56699,1.73785,1.74297,1.73785,2.29896,2.2968" fill="#9A916C"/>
  </g>
 </g>
 <g transform="matrix(1, 0, 0, 1, 27.7115, 81.6516)">
  <g >
   <rect  width="2.29896" x="0" y="0" height="2.2968" fill="#8D8C8C" id="connector2pin"/>
   <rect  width="1.18398" x="0.56099" y="0.556952" height="1.18189" fill="#8C8663"/>
   <polygon  points="0,2.2968,0.56099,1.73785,0.56099,0.501957,0,0" fill="#B8AF82"/>
   <polygon  points="1.74297,0.558951,0.56899,0.558951,0,0,2.29896,0" fill="#80795B"/>
   <polygon  points="1.74297,1.73785,1.74297,0.558951,2.29896,0,2.29896,2.2968" fill="#5E5B43"/>
   <polygon  points="0,2.2968,0.56699,1.73785,1.74297,1.73785,2.29896,2.2968" fill="#9A916C"/>
  </g>
 </g>
 <g transform="matrix(1, 0, 0, 1, 27.7115, 2.4516)">
  <g >
   <rect  width="2.29896" x="0" y="0" height="2.2968" fill="#8D8C8C" id="connector3pin"/>
   <rect  width="1.18398" x="0.56099" y="0.556952" height="1.18189" fill="#8C8663"/>
   <polygon  points="0,2.2968,0.56099,1.73785,0.56099,0.501957,0,0" fill="#B8AF82"/>
   <polygon  points="1.74297,0.558951,0.56899,0.558951,0,0,2.29896,0" fill="#80795B"/>
   <polygon  points="1.74297,1.73785,1.74297,0.558951,2.29896,0,2.29896,2.2968" fill="#5E5B43"/>
   <polygon  points="0,2.2968,0.56699,1.73785,1.74297,1.73785,2.29896,2.2968" fill="#9A916C"/>
  </g>
 </g>
</g>
</g></g></g><g partID='155370'><g transform='translate(238.265,235.305)' ><g  id="breadboard">
 <g  id="icon">
  <path  stroke="none" d="M0,0L0,19.44A2.16,2.16,0,0,1,0,23.76L0,43.2L41.33,43.2L41.33,0L0,0z" fill="#1F7A34" stroke-width="0"/>
  <g transform="matrix(1, 0, 0, 1, 7.2, 11.03)">
   <g >
    <g >
     <polygon  points="17.504,0,17.504,0.354,9.54403,0.354,9.54403,0,3.527,0,3.527,17.856,23.519,17.856,23.519,0" fill="#CCCCCC"/>
     <rect  width="19.992" x="3.527" y="17.856" height="3.283"/>
     <polygon  points="20.276,21.139,23.519,17.897,23.519,17.856,17.504,17.856,17.504,19.499,9.54403,19.499,9.54403,17.856,3.527,17.856,3.527,17.864,6.804,21.139" fill="#B3B3B3"/>
     <circle  cx="13.523" cy="8.928" r="4.929"/>
     <path  opacity="0.2" d="M8.59399,9.16798c0,2.724,2.207,4.931,4.929,4.931c2.722,0,4.929,-2.207,4.929,-4.931L18.452,8.928c0,2.723,-2.207,4.93,-4.929,4.93c-2.723,0,-4.929,-2.207,-4.929,-4.93L8.59399,9.16798z"/>
     <circle  cx="13.523" cy="8.928" r="4.748" fill="#1A1A1A"/>
     <rect  width="9.49702" x="8.775" y="6.884" height="2.044" fill="#1A1A1A"/>
     <circle  cx="13.523" cy="6.884" r="4.748" fill="#333333"/>
     <path  opacity="0.2" d="M8.775,7.109c0,2.623,2.125,4.749,4.749,4.749c2.622,0,4.748,-2.126,4.748,-4.749L18.272,6.884c0,2.623,-2.126,4.749,-4.748,4.749c-2.623,0,-4.749,-2.126,-4.749,-4.749L8.775,7.109z"/>
     <path  opacity="0.2" d="M18.271,7.109c0,-2.623,-2.126,-4.749,-4.748,-4.749c-2.623,0,-4.749,2.126,-4.749,4.749L8.77399,6.884c0,-2.623,2.125,-4.749,4.749,-4.749c2.622,0,4.748,2.126,4.748,4.749L18.271,7.109z" fill="#FFFFFF"/>
     <g >
      <rect  width="3.527" x="0" y="4.493" height="0.994997" fill="#E6E6E6"/>
      <rect  width="3.527" x="0" y="18.579" height="0.995998" fill="#E6E6E6"/>
     </g>
     <g >
      <rect  width="3.528" x="23.519" y="4.493" height="0.994997" fill="#E6E6E6"/>
      <rect  width="3.528" x="23.519" y="18.579" height="0.995998" fill="#E6E6E6"/>
     </g>
     <rect  opacity="0.2" width="6.016" x="17.504" y="0" height="0.354" fill="#FFFFFF"/>
     <rect  opacity="0.2" width="6.017" x="3.527" y="0" height="0.354" fill="#FFFFFF"/>
     <rect  opacity="0.2" width="7.96003" x="9.54403" y="0.354" height="0.354" fill="#FFFFFF"/>
     <rect  width="7.96003" x="9.54403" y="19.307" height="0.191" fill="#999999"/>
     <rect  width="7.96003" x="9.54403" y="17.864" height="0.191" fill="#999999"/>
     <rect  opacity="0.2" width="3.527" x="0" y="4.493" height="0.241" fill="#FFFFFF"/>
     <rect  opacity="0.2" width="3.527" x="0" y="18.579" height="0.24" fill="#FFFFFF"/>
     <rect  opacity="0.2" width="3.528" x="23.519" y="4.493" height="0.241" fill="#FFFFFF"/>
     <rect  opacity="0.2" width="3.528" x="23.519" y="18.579" height="0.24" fill="#FFFFFF"/>
     <rect  width="3.527" x="0" y="5.489" height="0.241" fill="#B3B3B3"/>
     <rect  width="3.527" x="0" y="19.575" height="0.24" fill="#B3B3B3"/>
     <rect  width="3.528" x="23.519" y="5.489" height="0.241" fill="#B3B3B3"/>
     <rect  width="3.528" x="23.519" y="19.575" height="0.24" fill="#B3B3B3"/>
     <rect  opacity="0.2" width="6.017" x="3.527" y="17.856" height="0.199"/>
     <rect  opacity="0.2" width="6.016" x="17.504" y="17.856" height="0.199"/>
     <polygon  opacity="0.2" points="20.469,20.911,6.611,20.911,6.804,21.139,20.276,21.139"/>
    </g>
   </g>
  </g>
 </g>
 <g transform="matrix(1, 0, 0, 1, 15.9155, 38.4516)">
  <g >
   <rect  width="2.29896" x="0" y="0" height="2.2968" fill="#8D8C8C" id="connector0pin"/>
   <rect  width="1.18398" x="0.56099" y="0.556952" height="1.18189" fill="#8C8663"/>
   <polygon  points="0,2.2968,0.56099,1.73785,0.56099,0.501957,0,0" fill="#B8AF82"/>
   <polygon  points="1.74297,0.558951,0.56899,0.558951,0,0,2.29896,0" fill="#80795B"/>
   <polygon  points="1.74297,1.73785,1.74297,0.558951,2.29896,0,2.29896,2.2968" fill="#5E5B43"/>
   <polygon  points="0,2.2968,0.56699,1.73785,1.74297,1.73785,2.29896,2.2968" fill="#9A916C"/>
  </g>
 </g>
 <g transform="matrix(1, 0, 0, 1, 15.9155, 2.4516)">
  <g >
   <rect  width="2.29896" x="0" y="0" height="2.2968" fill="#8D8C8C" id="connector3pin"/>
   <rect  width="1.18398" x="0.56099" y="0.556952" height="1.18189" fill="#8C8663"/>
   <polygon  points="0,2.2968,0.56099,1.73785,0.56099,0.501957,0,0" fill="#B8AF82"/>
   <polygon  points="1.74297,0.558951,0.56899,0.558951,0,0,2.29896,0" fill="#80795B"/>
   <polygon  points="1.74297,1.73785,1.74297,0.558951,2.29896,0,2.29896,2.2968" fill="#5E5B43"/>
   <polygon  points="0,2.2968,0.56699,1.73785,1.74297,1.73785,2.29896,2.2968" fill="#9A916C"/>
  </g>
 </g>
 <g transform="matrix(1, 0, 0, 1, 23.1155, 38.4516)">
  <g >
   <rect  width="2.29896" x="0" y="0" height="2.2968" fill="#8D8C8C" id="connector1pin"/>
   <rect  width="1.18398" x="0.56099" y="0.556952" height="1.18189" fill="#8C8663"/>
   <polygon  points="0,2.2968,0.56099,1.73785,0.56099,0.501957,0,0" fill="#B8AF82"/>
   <polygon  points="1.74297,0.558951,0.56899,0.558951,0,0,2.29896,0" fill="#80795B"/>
   <polygon  points="1.74297,1.73785,1.74297,0.558951,2.29896,0,2.29896,2.2968" fill="#5E5B43"/>
   <polygon  points="0,2.2968,0.56699,1.73785,1.74297,1.73785,2.29896,2.2968" fill="#9A916C"/>
  </g>
 </g>
 <g transform="matrix(1, 0, 0, 1, 23.1155, 2.4516)">
  <g >
   <rect  width="2.29896" x="0" y="0" height="2.2968" fill="#8D8C8C" id="connector2pin"/>
   <rect  width="1.18398" x="0.56099" y="0.556952" height="1.18189" fill="#8C8663"/>
   <polygon  points="0,2.2968,0.56099,1.73785,0.56099,0.501957,0,0" fill="#B8AF82"/>
   <polygon  points="1.74297,0.558951,0.56899,0.558951,0,0,2.29896,0" fill="#80795B"/>
   <polygon  points="1.74297,1.73785,1.74297,0.558951,2.29896,0,2.29896,2.2968" fill="#5E5B43"/>
   <polygon  points="0,2.2968,0.56699,1.73785,1.74297,1.73785,2.29896,2.2968" fill="#9A916C"/>
  </g>
 </g>
</g>
</g></g><path stroke='#000000' stroke-width='2.99588' stroke-linecap='round' stroke-linejoin='round' fill='none' d='M261.964,323.192L261.964,314.949' />
<path stroke='#ff0000' stroke-width='2.99588' stroke-linecap='round' stroke-linejoin='round' fill='none' d='M254.743,323.192L254.743,314.949' />
<g partID='155980'><g transform='translate(282.019,435.837)' ><g transform='matrix(-1,0,0,-1,0,0)'  ><g xmlns="http://www.w3.org/2000/svg" id="breadboard">
 <rect xmlns="http://www.w3.org/2000/svg" width="0.998628" x="18.9869" y="110.973" height="0.999758" id="connector0pin" fill="none"/>
 <rect xmlns="http://www.w3.org/2000/svg" width="0.998628" x="26.198" y="110.973" height="0.999758" id="connector1pin" fill="none"/>
 <g xmlns="http://www.w3.org/2000/svg" y1="112.672" stroke-linecap="round" y2="120.917" x1="20.083" x2="20.083" stroke="#000000" id="connector0leg" fill="none" stroke-width="2.99588"/>
 <g xmlns="http://www.w3.org/2000/svg" y1="112.672" stroke-linecap="round" y2="120.917" x1="27.314" x2="27.314" stroke="#FF0000" id="connector1leg" fill="none" stroke-width="2.99588"/>
 <path xmlns="http://www.w3.org/2000/svg" stroke="#000000" d="M20.0554,102.28l0,10.3645" fill="none" stroke-width="2.99588"/>
 <path xmlns="http://www.w3.org/2000/svg" stroke="#FF0000" d="M27.2765,102.28l0,10.3645" fill="none" stroke-width="2.99588"/>
 <polyline xmlns="http://www.w3.org/2000/svg" points="1.99726,39.4524,1.99726,102.28,45.3067,102.28,45.3067,39.4524" fill="#726038"/>
 <path xmlns="http://www.w3.org/2000/svg" stroke="#E5C76C" d="M1.99726,39.4524L1.99726,99.4459c0,1.55962,1.27325,2.83431,2.83011,2.83431l37.6493,0c1.55686,0,2.83011,-1.27469,2.83011,-2.83431L45.3067,39.4524" fill="none" stroke-width="3.99451"/>
 <polygon xmlns="http://www.w3.org/2000/svg" points="43.0678,43.4515,4.23618,43.4515,4.23618,39.4524,43.0678,39.4524,43.0678,43.4515" fill="#E5C76C"/>
 <polygon xmlns="http://www.w3.org/2000/svg" points="36.9352,39.4524,10.3688,39.4524,10.3688,35.4534,36.9352,35.4534,36.9352,39.4524" fill="#D6B667"/>
 <rect xmlns="http://www.w3.org/2000/svg" width="37.3936" x="4.95519" y="43.5834" height="55.0487" fill="#353535"/>
 <rect xmlns="http://www.w3.org/2000/svg" opacity="0.35" width="6.92349" x="4.95519" y="43.5834" height="55.0487"/>
 <rect xmlns="http://www.w3.org/2000/svg" opacity="0.25" width="11.8407" x="29.2159" y="44.5832" height="53.0492" fill="#FFFFFF"/>
 <rect xmlns="http://www.w3.org/2000/svg" width="37.3936" x="4.95519" y="98.6321" height="1.59261" fill="#999999"/>
 <rect xmlns="http://www.w3.org/2000/svg" opacity="0.12" width="5.095" x="10.3688" y="35.4534" height="3.99903"/>
 <rect xmlns="http://www.w3.org/2000/svg" opacity="0.35" width="4.64262" x="32.1169" y="35.6034" height="3.62112" fill="#FFFFFF"/>
 <rect xmlns="http://www.w3.org/2000/svg" opacity="0.54" width="4.64262" x="27.4742" y="35.6034" height="3.62112" fill="#FFFFFF"/>
 <polygon xmlns="http://www.w3.org/2000/svg" points="34.4387,35.4534,12.8653,35.4534,12.8653,31.4544,34.4387,31.4544,34.4387,35.4534" fill="#E2E2E2"/>
 <polygon xmlns="http://www.w3.org/2000/svg" points="27.2545,31.4544,20.0495,31.4544,20.0495,0,27.2545,0,27.2545,31.4544" fill="#D3D3D3"/>
 <rect xmlns="http://www.w3.org/2000/svg" opacity="0.12" width="4.13731" x="12.8653" y="31.4524" height="4.00003"/>
 <rect xmlns="http://www.w3.org/2000/svg" opacity="0.35" width="3.76982" x="30.5251" y="31.6043" height="3.62112" fill="#FFFFFF"/>
 <rect xmlns="http://www.w3.org/2000/svg" opacity="0.54" width="3.76982" x="26.7552" y="31.6043" height="3.62112" fill="#FFFFFF"/>
 <rect xmlns="http://www.w3.org/2000/svg" opacity="0.12" width="1.32418" x="20.0844" y="0.0179956" height="31.4334"/>
 <rect xmlns="http://www.w3.org/2000/svg" opacity="0.35" width="1.64574" x="25.2992" y="0.320922" height="30.8735" fill="#FFFFFF"/>
 <rect xmlns="http://www.w3.org/2000/svg" opacity="0.51" width="1.64674" x="23.6525" y="0.320922" height="30.8735" fill="#FFFFFF"/>
 <circle xmlns="http://www.w3.org/2000/svg" cx="23.6525" cy="3.14824" r="1.46399" fill="#A3A3A3"/>
 <circle xmlns="http://www.w3.org/2000/svg" opacity="0.2" cx="23.6525" cy="3.14824" r="1.27824" fill="#727272"/>
</g>
</g></g></g><path stroke='#000000' stroke-width='3' stroke-linecap='round' stroke-linejoin='round' fill='none' d='M382.43,104.05L382.43,99.0505' />
<path stroke='#ff0000' stroke-width='3' stroke-linecap='round' stroke-linejoin='round' fill='none' d='M375.25,104.05L375.25,99.0505' />
<g partID='159150'><g transform='translate(364.78,199.32)' ><g transform='matrix(0,-1,1,0,0,0)'  ><g  id="breadboard">
 <rect  width="1.256" x="95" y="16.158" height="2.998" fill="none" id="connector0pin"/>
 <rect  width="1.256" x="95" y="8.95799" height="3" fill="none" id="connector1pin"/>
 <g  y1="17.65" stroke-linecap="round" y2="17.65" x1="95.269" x2="100.269" stroke="#000000" id="connector0leg" fill="none" stroke-width="3"/>
 <g  y1="10.47" stroke-linecap="round" y2="10.47" x1="95.269" x2="100.269" stroke="#FF0000" id="connector1leg" fill="none" stroke-width="3"/>
 <g >
  <g >
   <path  d="M9.572,13.877l14.457,0c0.312,0,0.566,-0.255,0.566,-0.566999L24.595,5.09099c0,-0.312,-0.255,-0.566999,-0.566,-0.566999l-7.229,0L9.572,4.52399c-0.312,0,-0.566,0.255,-0.566,0.566999l0,8.21899C9.006,13.623,9.261,13.877,9.572,13.877zM9.876,5.18799c0,-0.304,0.248,-0.551999,0.552,-0.551999l6.373,0l6.373,0c0.304,0,0.552,0.248,0.552,0.551999l0,8.02499c0,0.304,-0.248,0.551999,-0.552,0.551999L10.428,13.765c-0.304,0,-0.552,-0.248,-0.552,-0.551999L9.876,5.18799z" fill="#939393"/>
   <path  d="M10.428,13.765l6.373,0l6.373,0c0.304,0,0.552,-0.248,0.552,-0.551999L23.726,5.18799c0,-0.304,-0.248,-0.551999,-0.552,-0.551999l-6.373,0l-6.373,0c-0.304,0,-0.552,0.248,-0.552,0.551999l0,8.02499C9.876,13.517,10.124,13.765,10.428,13.765z" fill="#B2B2B2"/>
   <path  d="M11.673,13.676l5.128,0l5.128,0c0.28,0,0.51,-0.229,0.51,-0.509999l0,-7.61999c0,-0.281,-0.229,-0.509999,-0.51,-0.509999l-3.981,0c0.109,0.0939999,0.186,0.232,0.186,0.395999l0,6.86499c0,0.281,-0.21,0.509999,-0.466,0.509999l-0.866,0l-2.474,0c-0.256,0,-0.466,-0.229,-0.466,-0.509999L13.862,5.43299c0,-0.164,0.076,-0.303,0.186,-0.395999l-2.374,0c-0.28,0,-0.51,0.229,-0.51,0.509999l0,7.61999C11.163,13.448,11.393,13.676,11.673,13.676z" fill="#E6E6E6"/>
   <path  opacity="0.9" d="M19.241,5.75899c0,-0.299,-0.199,-0.541999,-0.442,-0.541999l2.173,0c0.244,0,0.443,0.243,0.443,0.541999l0,7.27699c0,0.299,-0.199,0.541999,-0.443,0.541999l-2.173,0c0.243,0,0.442,-0.243,0.442,-0.541999L19.241,5.75899z" fill="#FFFFFF"/>
  </g>
  <rect  opacity="0.1" width="15.547" x="9.017" y="4.56399" height="1.547"/>
 </g>
 <g >
  <path  d="M27.12,7.77799c-0.384,-0.017,-1.126,0.672999,-1.126,0.672999s-0.365,-0.742999,-1.012,-0.791999c-2.887,-0.216,-4.328,-0.119,-7.214,-0.119c-0.39,0,-0.813,-0.014,-0.996,0.490999C16.592,7.52599,16.17,7.53999,15.779,7.53999c-2.945,0,-4.413,-0.0859999,-7.36,0.137C7.704,7.72999,7.402,8.46699,7.402,8.46699S6.98,7.74899,6.55,7.76799c-0.519,0.00999998,-1.007,-0.029,-1.046,0.417999c-0.152,1.734,-0.295,2.528,-0.371,4.08299c-0.065,1.324,0.391,1.901,0.391,3.37799c0,1.017,0.904,2.17,1.673,2.17c2.716,0,4.074,-0.0619999,6.79,0.143c1.206,0.0909999,2.451,-0.142,2.786,-1.229c0.336,1.088,1.585,1.323,2.791,1.232c2.715,-0.204,4.072,-0.146,6.788,-0.146c0.768,0,1.538,-1.234,1.538,-2.171c0,0,0.683,-2.106,0.574,-3.67499S27.908,8.16999,27.908,8.16999C27.854,7.53099,27.305,7.78599,27.12,7.77799z" fill="#919191"/>
  <g >
   <path  d="M5.615,10.111c0.849,-0.252,1.446,-0.491999,1.446,-0.491999c-0.174,1.797,-0.276,2.646,0.001,4.16299c-0.52,-0.0919999,-1.006,-0.175,-1.477,-0.25C5.308,12.232,5.519,11.617,5.615,10.111z" fill="#F4F4F4"/>
   <path  d="M5.865,8.17699c0.747,0.0389999,1.273,0.641999,1.196,1.441c0,0,-0.598,0.24,-1.446,0.491999C5.665,9.33699,5.797,8.95099,5.865,8.17699z" fill="#B7B7B7"/>
   <path  d="M6.958,12.878c0.015,0.598999,0.095,0.821999,0.188,1.341c0.121,0.679999,-0.505,1.354,-1.258,1.407c0,-0.925999,-0.131,-1.295,-0.302,-2.095C6.145,13.532,6.971,13.42,6.958,12.878z" fill="#999999"/>
  </g>
  <g >
   <path  d="M7.822,9.56798c0.062,-0.834999,0.548,-1.543,1.064,-1.58c2.619,-0.189,3.907,-0.101,6.508,-0.101c0.515,0,0.932,0.674999,0.932,1.51c0,0,-0.187,1.416,-0.187,2.246s0.187,2.157,0.187,2.157c0,1.239,-0.417,2.104,-0.932,2.075c-2.601,-0.147,-3.902,-0.24,-6.503,-0.24c-0.513,0,-0.903,-0.706999,-1.001,-1.416C7.657,12.519,7.672,11.573,7.822,9.56798z" fill="#F4F4F4"/>
   <g >
    <path  d="M8.887,7.98799c2.619,-0.189,3.907,-0.101,6.508,-0.101c0.515,0,0.932,0.674999,0.932,1.51c0,0,-2.748,0.12,-4.409,0.12c-1.786,0,-4.095,0.0509999,-4.095,0.0509999C7.885,8.73299,8.37,8.02499,8.887,7.98799z" fill="#B7B7B7"/>
   </g>
   <g >
    <path  d="M8.892,15.635c2.601,0,3.902,0.0929999,6.503,0.24c0.515,0.029,0.932,-0.640999,0.932,-1.472c0,-0.245,0,-0.367999,0,-0.612999c-1.22,-0.395999,-2.746,-0.641999,-4.407,-0.642999c-1.797,-0.000999998,-3.009,0.598999,-4.171,-0.354999c-0.002,0.644999,0.067,0.878999,0.143,1.427C7.988,14.928,8.379,15.635,8.892,15.635z" fill="#999999"/>
   </g>
  </g>
  <g >
   <path  d="M27.931,10.108c-0.851,-0.254,-1.449,-0.493999,-1.449,-0.493999c0.171,1.797,0.272,2.65,0,4.16799c0.52,-0.0919999,1.004,-0.175,1.476,-0.25C28.232,12.232,28.028,11.614,27.931,10.108z" fill="#F4F4F4"/>
   <path  d="M27.683,8.17399c-0.747,0.0369999,-1.277,0.639999,-1.201,1.439c0,0,0.599,0.24,1.449,0.493999C27.881,9.33399,27.751,8.94799,27.683,8.17399z" fill="#B7B7B7"/>
   <path  d="M26.584,12.547c0.006,0.714999,-0.072,1.037,-0.184,1.672c-0.119,0.679999,0.506,1.354,1.259,1.407c0,-0.925999,0.129,-1.295,0.298,-2.095C27.535,13.532,26.589,13.198,26.584,12.547z" fill="#999999"/>
  </g>
  <g >
   <path  d="M25.722,9.56198c-0.062,-0.834999,-0.546,-1.541,-1.062,-1.578c-2.617,-0.187,-3.907,-0.0969998,-6.507,-0.0969998c-0.515,0,-0.928,0.674999,-0.928,1.51c0,0,0.169,1.522,0.169,2.435s-0.169,1.968,-0.169,1.968c0,0.831999,0.413,2.108,0.928,2.08c2.6,-0.144,3.901,-0.244,6.501,-0.244c0.513,0,0.904,-0.706999,0.999,-1.416C25.882,12.519,25.868,11.567,25.722,9.56198z" fill="#F4F4F4"/>
   <g >
    <path  d="M24.66,7.98399c-2.617,-0.187,-3.907,-0.0969998,-6.507,-0.0969998c-0.515,0,-0.928,0.674999,-0.928,1.51c0,0,2.744,0.12,4.405,0.12c1.786,0,4.091,0.0449999,4.091,0.0449999C25.66,8.72699,25.176,8.02099,24.66,7.98399z" fill="#B7B7B7"/>
   </g>
   <g >
    <path  d="M24.654,15.635c-2.6,0,-3.901,0.101,-6.501,0.244c-0.515,0.028,-0.928,-0.641999,-0.928,-1.474c0,-0.245,0,-0.367999,0,-0.613999c1.219,-0.394999,2.745,-0.641999,4.405,-0.643999c1.796,-0.002,3.2,0.333999,4.164,-0.566999c0.001,0.710999,-0.059,1.019,-0.142,1.639C25.559,14.928,25.167,15.635,24.654,15.635z" fill="#999999"/>
   </g>
  </g>
 </g>
 <g >
  <path  d="M60.123,7.34199L45.666,7.34199c-0.312,0,-0.566,0.255,-0.566,0.566999l0,8.21899c0,0.312,0.255,0.566999,0.566,0.566999l7.229,0l7.229,0c0.312,0,0.566,-0.255,0.566,-0.566999L60.69,7.90999C60.689,7.59699,60.435,7.34199,60.123,7.34199zM59.819,16.032c0,0.304,-0.248,0.551999,-0.552,0.551999l-6.373,0l-6.373,0c-0.304,0,-0.552,-0.248,-0.552,-0.551999L45.969,8.00599c0,-0.304,0.248,-0.551999,0.552,-0.551999l12.746,0c0.304,0,0.552,0.248,0.552,0.551999L59.819,16.032z" fill="#939393"/>
  <path  d="M59.268,7.45499l-6.373,0l-6.373,0c-0.304,0,-0.552,0.248,-0.552,0.551999l0,8.02499c0,0.304,0.248,0.551999,0.552,0.551999l6.373,0l6.373,0c0.304,0,0.552,-0.248,0.552,-0.551999L59.82,8.00599C59.819,7.70299,59.571,7.45499,59.268,7.45499z" fill="#B2B2B2"/>
  <path  d="M58.022,7.54299l-5.128,0l-5.128,0c-0.28,0,-0.51,0.229,-0.51,0.509999l0,7.61999c0,0.281,0.229,0.509999,0.51,0.509999l3.981,0c-0.109,-0.0939999,-0.186,-0.232,-0.186,-0.395999L51.561,8.92099c0,-0.281,0.21,-0.509999,0.466,-0.509999l0.866,0l2.474,0c0.256,0,0.466,0.229,0.466,0.509999l0,6.86499c0,0.164,-0.076,0.303,-0.186,0.395999l2.374,0c0.28,0,0.51,-0.229,0.51,-0.509999l0,-7.61999C58.532,7.77199,58.303,7.54299,58.022,7.54299z" fill="#E6E6E6"/>
  <path  opacity="0.9" d="M50.454,15.46c0,0.299,0.199,0.541999,0.442,0.541999l-2.173,0c-0.244,0,-0.443,-0.243,-0.443,-0.541999L48.28,8.18299c0,-0.299,0.199,-0.541999,0.443,-0.541999l2.173,0c-0.243,0,-0.442,0.243,-0.442,0.541999L50.454,15.46z" fill="#FFFFFF"/>
 </g>
 <rect  width="15.547" x="45.132" y="15.109" height="1.547" fill="none"/>
 <rect  opacity="0.1" width="22.592" x="5.382" y="15.109" height="1.547"/>
 <path  d="M5.67,151.871l0.06,0c-0.099,0,-0.195,-0.00699999,-0.293,-0.00999998C5.515,151.864,5.591,151.871,5.67,151.871z" fill="#353535"/>
 <path  d="M5.111,151.847c-0.021,-0.000999998,-0.041,-0.00399999,-0.062,-0.00599999C5.07,151.843,5.091,151.846,5.111,151.847z" fill="#353535"/>
 <path  opacity="0.35" d="M5.437,151.861c-0.108,-0.00399999,-0.219,-0.00499999,-0.325,-0.014C5.218,151.855,5.327,151.857,5.437,151.861z"/>
 <path  d="M70.727,148.251c-0.606,0.895999,-2.843,1.566,-5.498,1.566L5.729,149.817c-3.117,0,-5.666,-0.923999,-5.666,-2.052l0,0.124c0.36,2.076,2.42,3.72099,4.986,3.95099c0.021,0.002,0.041,0.00499999,0.062,0.00599999c0.106,0.00899999,0.217,0.00999998,0.325,0.014c0.098,0.003,0.194,0.00999998,0.293,0.00999998l59.469,0C67.893,151.871,70.159,150.315,70.727,148.251z" fill="#353535"/>
 <path  opacity="0.35" d="M70.727,148.251c-0.606,0.895999,-2.843,1.566,-5.498,1.566L5.729,149.817c-3.117,0,-5.666,-0.923999,-5.666,-2.052l0,0.124c0.36,2.076,2.42,3.72099,4.986,3.95099c0.021,0.002,0.041,0.00499999,0.062,0.00599999c0.106,0.00899999,0.217,0.00999998,0.325,0.014c0.098,0.003,0.194,0.00999998,0.293,0.00999998l59.469,0C67.893,151.871,70.159,150.315,70.727,148.251z"/>
 <g >
  <g >
   <path  d="M66.331,15.798c1.985,0,4.536,1.702,4.536,3.78299l0,127.662c0,2.545,-2.551,4.62699,-5.669,4.62699L5.67,151.87c-3.118,0,-5.669,-2.082,-5.669,-4.62699L0.001,19.582c0,-2.081,2.551,-3.78299,6.802,-3.78299L66.331,15.799z" fill="#353535"/>
   <path  d="M70.867,49.3939L0.001,49.3939L0.001,19.582c0,-2.08,2.551,-3.78299,6.802,-3.78299l59.528,0c1.985,0,4.536,1.703,4.536,3.78299L70.867,49.3939z" fill="#D18D52"/>
  </g>
  <path  opacity="0.15" d="M69.604,147.766c0,0.574999,-1.594,1.067,-3.783,1.237L65.821,17.89c2.189,0.139,3.783,0.540999,3.783,1.012L69.604,147.766z" fill="#FFFFFF"/>
  <path  opacity="0.15" d="M1.145,147.766c0,0.574999,1.594,1.067,3.783,1.237L4.928,17.89c-2.189,0.139,-3.783,0.540999,-3.783,1.012L1.145,147.766z" fill="#FFFFFF"/>
  <path  opacity="0.35" d="M1.145,18.89c0,-0.585999,2.464,-1.065,5.477,-1.065l57.507,0c3.013,0,5.477,0.478999,5.477,1.065l0,-0.218c0,-1.052,-2.464,-1.913,-5.477,-1.913L6.621,16.759c-3.013,0,-5.477,0.860999,-5.477,1.913L1.144,18.89z" fill="#FFFFFF"/>
  <g  opacity="0.2">
   <path  d="M69.604,18.521c0,0,0,128.894,0,130.529c0.628,-0.297,0.628,-0.297,1,-0.645999c0,-0.624999,0,-126.22,0,-126.681C70.604,20.658,69.897,19.162,69.604,18.521z"/>
  </g>
  <g  opacity="0.2">
   <path  d="M1.145,18.521c0,0,0,128.894,0,130.529c-0.628,-0.297,-0.628,-0.297,-1,-0.645999c0,-0.624999,0,-126.22,0,-126.681C0.145,20.658,0.852,19.162,1.145,18.521z"/>
  </g>
 </g>
 <path  stroke="#000000" d="M67.713,4.41499c14.469,0,13.856,13.249,27.556,13.249" fill="none" stroke-width="3"/>
 <path  stroke="#FF0000" d="M67.713,4.41699c17.259,0,16.104,6.03499,27.556,6.03499" fill="none" stroke-width="3"/>
 <g >
  <path  d="M42.569,14.396c0.384,0.017,1.126,-0.672999,1.126,-0.672999s0.365,0.742999,1.012,0.791999c2.887,0.216,4.328,0.119,7.214,0.119c0.39,0,0.813,0.014,0.996,-0.490999c0.181,0.504999,0.603,0.490999,0.993,0.490999c2.945,0,4.413,0.0859999,7.36,-0.137c0.715,-0.0539999,1.017,-0.790999,1.017,-0.790999s0.422,0.718999,0.853,0.698999c0.519,-0.00999998,1.007,0.029,1.046,-0.417999c0.152,-1.734,0.295,-2.528,0.371,-4.08299c0.065,-1.324,-0.391,-1.901,-0.391,-3.37799c0,-1.017,-0.904,-2.17,-1.673,-2.17c-2.716,0,-4.074,0.0619999,-6.79,-0.143c-1.206,-0.0909999,-2.451,0.142,-2.786,1.229c-0.336,-1.088,-1.585,-1.323,-2.791,-1.232c-2.715,0.204,-4.072,0.146,-6.788,0.146c-0.768,0,-1.538,1.234,-1.538,2.171c0,0,-0.683,2.106,-0.574,3.67499s0.556,3.80199,0.556,3.80199C41.836,14.643,42.385,14.388,42.569,14.396z" fill="#919191"/>
  <g >
   <path  d="M64.074,12.063c-0.849,0.252,-1.446,0.491999,-1.446,0.491999c0.174,-1.797,0.276,-2.646,-0.001,-4.16299c0.52,0.0919999,1.006,0.175,1.477,0.25C64.382,9.94198,64.171,10.557,64.074,12.063z" fill="#F4F4F4"/>
   <path  d="M63.824,13.997c-0.747,-0.0389999,-1.273,-0.641999,-1.196,-1.441c0,0,0.598,-0.24,1.446,-0.491999C64.024,12.836,63.893,13.223,63.824,13.997z" fill="#B7B7B7"/>
   <path  d="M62.731,9.29499c-0.015,-0.598999,-0.095,-0.821999,-0.188,-1.341c-0.121,-0.679999,0.505,-1.354,1.258,-1.407c0,0.925999,0.131,1.295,0.302,2.095C63.545,8.64199,62.719,8.75299,62.731,9.29499z" fill="#999999"/>
  </g>
  <g >
   <path  d="M61.867,12.606c-0.062,0.834999,-0.548,1.543,-1.064,1.58c-2.619,0.189,-3.907,0.101,-6.508,0.101c-0.515,0,-0.932,-0.674999,-0.932,-1.51c0,0,0.187,-1.416,0.187,-2.246s-0.187,-2.157,-0.187,-2.157c0,-1.239,0.417,-2.104,0.932,-2.075c2.601,0.147,3.902,0.24,6.503,0.24c0.513,0,0.903,0.706999,1.001,1.416C62.032,9.65498,62.018,10.601,61.867,12.606z" fill="#F4F4F4"/>
   <g >
    <path  d="M60.803,14.186c-2.619,0.189,-3.907,0.101,-6.508,0.101c-0.515,0,-0.932,-0.674999,-0.932,-1.51c0,0,2.748,-0.12,4.409,-0.12c1.786,0,4.095,-0.0509999,4.095,-0.0509999C61.805,13.441,61.319,14.149,60.803,14.186z" fill="#B7B7B7"/>
   </g>
   <g >
    <path  d="M60.798,6.53899c-2.601,0,-3.902,-0.0929999,-6.503,-0.24c-0.515,-0.029,-0.932,0.640999,-0.932,1.472c0,0.245,0,0.367999,0,0.612999c1.22,0.395999,2.746,0.641999,4.407,0.642999c1.797,0.000999998,3.009,-0.598999,4.171,0.354999c0.002,-0.644999,-0.067,-0.878999,-0.143,-1.427C61.701,7.24599,61.311,6.53899,60.798,6.53899z" fill="#999999"/>
   </g>
  </g>
  <g >
   <path  d="M41.759,12.066c0.851,0.254,1.449,0.493999,1.449,0.493999c-0.171,-1.797,-0.272,-2.65,0,-4.16799c-0.52,0.0919999,-1.004,0.175,-1.476,0.25C41.457,9.94198,41.661,10.56,41.759,12.066z" fill="#F4F4F4"/>
   <path  d="M42.007,14c0.747,-0.0369999,1.277,-0.639999,1.201,-1.439c0,0,-0.599,-0.24,-1.449,-0.493999C41.809,12.839,41.938,13.226,42.007,14z" fill="#B7B7B7"/>
   <path  d="M43.105,9.62598c-0.006,-0.714999,0.072,-1.037,0.184,-1.672c0.119,-0.679999,-0.506,-1.354,-1.259,-1.407c0,0.925999,-0.129,1.295,-0.298,2.095C42.154,8.64199,43.101,8.97599,43.105,9.62598z" fill="#999999"/>
  </g>
  <g >
   <path  d="M43.968,12.612c0.062,0.834999,0.546,1.541,1.062,1.578c2.617,0.187,3.907,0.0969998,6.507,0.0969998c0.515,0,0.928,-0.674999,0.928,-1.51c0,0,-0.169,-1.522,-0.169,-2.435s0.169,-1.968,0.169,-1.968c0,-0.831999,-0.413,-2.108,-0.928,-2.08c-2.6,0.144,-3.901,0.244,-6.501,0.244c-0.513,0,-0.904,0.706999,-0.999,1.416C43.808,9.65498,43.821,10.607,43.968,12.612z" fill="#F4F4F4"/>
   <g >
    <path  d="M45.029,14.19c2.617,0.187,3.907,0.0969998,6.507,0.0969998c0.515,0,0.928,-0.674999,0.928,-1.51c0,0,-2.744,-0.12,-4.405,-0.12c-1.786,0,-4.091,-0.0449999,-4.091,-0.0449999C44.029,13.447,44.514,14.153,45.029,14.19z" fill="#B7B7B7"/>
   </g>
   <g >
    <path  d="M45.035,6.53899c2.6,0,3.901,-0.101,6.501,-0.244c0.515,-0.028,0.928,0.641999,0.928,1.474c0,0.245,0,0.367999,0,0.613999c-1.219,0.394999,-2.745,0.641999,-4.405,0.643999c-1.796,0.002,-3.2,-0.333999,-4.164,0.566999c-0.001,-0.710999,0.059,-1.019,0.142,-1.639C44.131,7.24599,44.522,6.53899,45.035,6.53899z" fill="#999999"/>
   </g>
  </g>
 </g>
 <path  d="M67.753,6.91699c0,0,0,-3.56299,0,-4.47999C67.753,0.737999,66.587,0,61.496,0L9.354,0C4.263,0,3.097,0.737999,3.097,2.437c0,0.916999,0,4.47999,0,4.47999L67.753,6.91699z" fill="#262626"/>
 <path  opacity="0.35" d="M62.767,0.565999c3.609,0,4.257,0.860999,4.257,1.913l0,0.218c0,-0.585999,-1.447,-1.065,-4.257,-1.065L8.082,1.632c-2.81,0,-4.257,0.478999,-4.257,1.065L3.825,2.479c0,-1.052,0.647,-1.913,4.257,-1.913L62.767,0.565999z" fill="#FFFFFF"/>
 <path  opacity="0.15" d="M5.586,1.815c-1.152,0.188,-1.761,0.509999,-1.761,0.881999l0,3.81699l1.761,0L5.586,1.815z" fill="#FFFFFF"/>
 <path  opacity="0.15" d="M65.263,1.815c1.152,0.188,1.761,0.509999,1.761,0.881999l0,3.81699l-1.761,0L65.263,1.815z" fill="#FFFFFF"/>
 <g >
  <g transform="matrix(1, 0, 0, 1, 22.6406, 75.9354)">
   <text  font-family="Droid Sans" fill="#FFFFFF" font-size="22">9</text>
  </g>
  <g transform="matrix(1, 0, 0, 1, 36.5776, 75.9359)">
   <text  font-family="Droid Sans" fill="#FFFFFF" font-size="22">v</text>
  </g>
 </g>
</g>
</g></g></g><path stroke='#000000' stroke-width='3' stroke-linecap='round' stroke-linejoin='round' fill='none' d='M345.127,320.782L345.127,315.782' />
<path stroke='#ff0000' stroke-width='3' stroke-linecap='round' stroke-linejoin='round' fill='none' d='M337.947,320.782L337.947,315.782' />
<g partID='156040'><g transform='translate(327.477,416.051)' ><g transform='matrix(0,-1,1,0,0,0)'  ><g  id="breadboard">
 <rect  width="1.256" x="95" y="16.158" height="2.998" fill="none" id="connector0pin"/>
 <rect  width="1.256" x="95" y="8.95799" height="3" fill="none" id="connector1pin"/>
 <g  y1="17.65" stroke-linecap="round" y2="17.65" x1="95.269" x2="100.269" stroke="#000000" id="connector0leg" fill="none" stroke-width="3"/>
 <g  y1="10.47" stroke-linecap="round" y2="10.47" x1="95.269" x2="100.269" stroke="#FF0000" id="connector1leg" fill="none" stroke-width="3"/>
 <g >
  <g >
   <path  d="M9.572,13.877l14.457,0c0.312,0,0.566,-0.255,0.566,-0.566999L24.595,5.09099c0,-0.312,-0.255,-0.566999,-0.566,-0.566999l-7.229,0L9.572,4.52399c-0.312,0,-0.566,0.255,-0.566,0.566999l0,8.21899C9.006,13.623,9.261,13.877,9.572,13.877zM9.876,5.18799c0,-0.304,0.248,-0.551999,0.552,-0.551999l6.373,0l6.373,0c0.304,0,0.552,0.248,0.552,0.551999l0,8.02499c0,0.304,-0.248,0.551999,-0.552,0.551999L10.428,13.765c-0.304,0,-0.552,-0.248,-0.552,-0.551999L9.876,5.18799z" fill="#939393"/>
   <path  d="M10.428,13.765l6.373,0l6.373,0c0.304,0,0.552,-0.248,0.552,-0.551999L23.726,5.18799c0,-0.304,-0.248,-0.551999,-0.552,-0.551999l-6.373,0l-6.373,0c-0.304,0,-0.552,0.248,-0.552,0.551999l0,8.02499C9.876,13.517,10.124,13.765,10.428,13.765z" fill="#B2B2B2"/>
   <path  d="M11.673,13.676l5.128,0l5.128,0c0.28,0,0.51,-0.229,0.51,-0.509999l0,-7.61999c0,-0.281,-0.229,-0.509999,-0.51,-0.509999l-3.981,0c0.109,0.0939999,0.186,0.232,0.186,0.395999l0,6.86499c0,0.281,-0.21,0.509999,-0.466,0.509999l-0.866,0l-2.474,0c-0.256,0,-0.466,-0.229,-0.466,-0.509999L13.862,5.43299c0,-0.164,0.076,-0.303,0.186,-0.395999l-2.374,0c-0.28,0,-0.51,0.229,-0.51,0.509999l0,7.61999C11.163,13.448,11.393,13.676,11.673,13.676z" fill="#E6E6E6"/>
   <path  opacity="0.9" d="M19.241,5.75899c0,-0.299,-0.199,-0.541999,-0.442,-0.541999l2.173,0c0.244,0,0.443,0.243,0.443,0.541999l0,7.27699c0,0.299,-0.199,0.541999,-0.443,0.541999l-2.173,0c0.243,0,0.442,-0.243,0.442,-0.541999L19.241,5.75899z" fill="#FFFFFF"/>
  </g>
  <rect  opacity="0.1" width="15.547" x="9.017" y="4.56399" height="1.547"/>
 </g>
 <g >
  <path  d="M27.12,7.77799c-0.384,-0.017,-1.126,0.672999,-1.126,0.672999s-0.365,-0.742999,-1.012,-0.791999c-2.887,-0.216,-4.328,-0.119,-7.214,-0.119c-0.39,0,-0.813,-0.014,-0.996,0.490999C16.592,7.52599,16.17,7.53999,15.779,7.53999c-2.945,0,-4.413,-0.0859999,-7.36,0.137C7.704,7.72999,7.402,8.46699,7.402,8.46699S6.98,7.74899,6.55,7.76799c-0.519,0.00999998,-1.007,-0.029,-1.046,0.417999c-0.152,1.734,-0.295,2.528,-0.371,4.08299c-0.065,1.324,0.391,1.901,0.391,3.37799c0,1.017,0.904,2.17,1.673,2.17c2.716,0,4.074,-0.0619999,6.79,0.143c1.206,0.0909999,2.451,-0.142,2.786,-1.229c0.336,1.088,1.585,1.323,2.791,1.232c2.715,-0.204,4.072,-0.146,6.788,-0.146c0.768,0,1.538,-1.234,1.538,-2.171c0,0,0.683,-2.106,0.574,-3.67499S27.908,8.16999,27.908,8.16999C27.854,7.53099,27.305,7.78599,27.12,7.77799z" fill="#919191"/>
  <g >
   <path  d="M5.615,10.111c0.849,-0.252,1.446,-0.491999,1.446,-0.491999c-0.174,1.797,-0.276,2.646,0.001,4.16299c-0.52,-0.0919999,-1.006,-0.175,-1.477,-0.25C5.308,12.232,5.519,11.617,5.615,10.111z" fill="#F4F4F4"/>
   <path  d="M5.865,8.17699c0.747,0.0389999,1.273,0.641999,1.196,1.441c0,0,-0.598,0.24,-1.446,0.491999C5.665,9.33699,5.797,8.95099,5.865,8.17699z" fill="#B7B7B7"/>
   <path  d="M6.958,12.878c0.015,0.598999,0.095,0.821999,0.188,1.341c0.121,0.679999,-0.505,1.354,-1.258,1.407c0,-0.925999,-0.131,-1.295,-0.302,-2.095C6.145,13.532,6.971,13.42,6.958,12.878z" fill="#999999"/>
  </g>
  <g >
   <path  d="M7.822,9.56798c0.062,-0.834999,0.548,-1.543,1.064,-1.58c2.619,-0.189,3.907,-0.101,6.508,-0.101c0.515,0,0.932,0.674999,0.932,1.51c0,0,-0.187,1.416,-0.187,2.246s0.187,2.157,0.187,2.157c0,1.239,-0.417,2.104,-0.932,2.075c-2.601,-0.147,-3.902,-0.24,-6.503,-0.24c-0.513,0,-0.903,-0.706999,-1.001,-1.416C7.657,12.519,7.672,11.573,7.822,9.56798z" fill="#F4F4F4"/>
   <g >
    <path  d="M8.887,7.98799c2.619,-0.189,3.907,-0.101,6.508,-0.101c0.515,0,0.932,0.674999,0.932,1.51c0,0,-2.748,0.12,-4.409,0.12c-1.786,0,-4.095,0.0509999,-4.095,0.0509999C7.885,8.73299,8.37,8.02499,8.887,7.98799z" fill="#B7B7B7"/>
   </g>
   <g >
    <path  d="M8.892,15.635c2.601,0,3.902,0.0929999,6.503,0.24c0.515,0.029,0.932,-0.640999,0.932,-1.472c0,-0.245,0,-0.367999,0,-0.612999c-1.22,-0.395999,-2.746,-0.641999,-4.407,-0.642999c-1.797,-0.000999998,-3.009,0.598999,-4.171,-0.354999c-0.002,0.644999,0.067,0.878999,0.143,1.427C7.988,14.928,8.379,15.635,8.892,15.635z" fill="#999999"/>
   </g>
  </g>
  <g >
   <path  d="M27.931,10.108c-0.851,-0.254,-1.449,-0.493999,-1.449,-0.493999c0.171,1.797,0.272,2.65,0,4.16799c0.52,-0.0919999,1.004,-0.175,1.476,-0.25C28.232,12.232,28.028,11.614,27.931,10.108z" fill="#F4F4F4"/>
   <path  d="M27.683,8.17399c-0.747,0.0369999,-1.277,0.639999,-1.201,1.439c0,0,0.599,0.24,1.449,0.493999C27.881,9.33399,27.751,8.94799,27.683,8.17399z" fill="#B7B7B7"/>
   <path  d="M26.584,12.547c0.006,0.714999,-0.072,1.037,-0.184,1.672c-0.119,0.679999,0.506,1.354,1.259,1.407c0,-0.925999,0.129,-1.295,0.298,-2.095C27.535,13.532,26.589,13.198,26.584,12.547z" fill="#999999"/>
  </g>
  <g >
   <path  d="M25.722,9.56198c-0.062,-0.834999,-0.546,-1.541,-1.062,-1.578c-2.617,-0.187,-3.907,-0.0969998,-6.507,-0.0969998c-0.515,0,-0.928,0.674999,-0.928,1.51c0,0,0.169,1.522,0.169,2.435s-0.169,1.968,-0.169,1.968c0,0.831999,0.413,2.108,0.928,2.08c2.6,-0.144,3.901,-0.244,6.501,-0.244c0.513,0,0.904,-0.706999,0.999,-1.416C25.882,12.519,25.868,11.567,25.722,9.56198z" fill="#F4F4F4"/>
   <g >
    <path  d="M24.66,7.98399c-2.617,-0.187,-3.907,-0.0969998,-6.507,-0.0969998c-0.515,0,-0.928,0.674999,-0.928,1.51c0,0,2.744,0.12,4.405,0.12c1.786,0,4.091,0.0449999,4.091,0.0449999C25.66,8.72699,25.176,8.02099,24.66,7.98399z" fill="#B7B7B7"/>
   </g>
   <g >
    <path  d="M24.654,15.635c-2.6,0,-3.901,0.101,-6.501,0.244c-0.515,0.028,-0.928,-0.641999,-0.928,-1.474c0,-0.245,0,-0.367999,0,-0.613999c1.219,-0.394999,2.745,-0.641999,4.405,-0.643999c1.796,-0.002,3.2,0.333999,4.164,-0.566999c0.001,0.710999,-0.059,1.019,-0.142,1.639C25.559,14.928,25.167,15.635,24.654,15.635z" fill="#999999"/>
   </g>
  </g>
 </g>
 <g >
  <path  d="M60.123,7.34199L45.666,7.34199c-0.312,0,-0.566,0.255,-0.566,0.566999l0,8.21899c0,0.312,0.255,0.566999,0.566,0.566999l7.229,0l7.229,0c0.312,0,0.566,-0.255,0.566,-0.566999L60.69,7.90999C60.689,7.59699,60.435,7.34199,60.123,7.34199zM59.819,16.032c0,0.304,-0.248,0.551999,-0.552,0.551999l-6.373,0l-6.373,0c-0.304,0,-0.552,-0.248,-0.552,-0.551999L45.969,8.00599c0,-0.304,0.248,-0.551999,0.552,-0.551999l12.746,0c0.304,0,0.552,0.248,0.552,0.551999L59.819,16.032z" fill="#939393"/>
  <path  d="M59.268,7.45499l-6.373,0l-6.373,0c-0.304,0,-0.552,0.248,-0.552,0.551999l0,8.02499c0,0.304,0.248,0.551999,0.552,0.551999l6.373,0l6.373,0c0.304,0,0.552,-0.248,0.552,-0.551999L59.82,8.00599C59.819,7.70299,59.571,7.45499,59.268,7.45499z" fill="#B2B2B2"/>
  <path  d="M58.022,7.54299l-5.128,0l-5.128,0c-0.28,0,-0.51,0.229,-0.51,0.509999l0,7.61999c0,0.281,0.229,0.509999,0.51,0.509999l3.981,0c-0.109,-0.0939999,-0.186,-0.232,-0.186,-0.395999L51.561,8.92099c0,-0.281,0.21,-0.509999,0.466,-0.509999l0.866,0l2.474,0c0.256,0,0.466,0.229,0.466,0.509999l0,6.86499c0,0.164,-0.076,0.303,-0.186,0.395999l2.374,0c0.28,0,0.51,-0.229,0.51,-0.509999l0,-7.61999C58.532,7.77199,58.303,7.54299,58.022,7.54299z" fill="#E6E6E6"/>
  <path  opacity="0.9" d="M50.454,15.46c0,0.299,0.199,0.541999,0.442,0.541999l-2.173,0c-0.244,0,-0.443,-0.243,-0.443,-0.541999L48.28,8.18299c0,-0.299,0.199,-0.541999,0.443,-0.541999l2.173,0c-0.243,0,-0.442,0.243,-0.442,0.541999L50.454,15.46z" fill="#FFFFFF"/>
 </g>
 <rect  width="15.547" x="45.132" y="15.109" height="1.547" fill="none"/>
 <rect  opacity="0.1" width="22.592" x="5.382" y="15.109" height="1.547"/>
 <path  d="M5.67,151.871l0.06,0c-0.099,0,-0.195,-0.00699999,-0.293,-0.00999998C5.515,151.864,5.591,151.871,5.67,151.871z" fill="#353535"/>
 <path  d="M5.111,151.847c-0.021,-0.000999998,-0.041,-0.00399999,-0.062,-0.00599999C5.07,151.843,5.091,151.846,5.111,151.847z" fill="#353535"/>
 <path  opacity="0.35" d="M5.437,151.861c-0.108,-0.00399999,-0.219,-0.00499999,-0.325,-0.014C5.218,151.855,5.327,151.857,5.437,151.861z"/>
 <path  d="M70.727,148.251c-0.606,0.895999,-2.843,1.566,-5.498,1.566L5.729,149.817c-3.117,0,-5.666,-0.923999,-5.666,-2.052l0,0.124c0.36,2.076,2.42,3.72099,4.986,3.95099c0.021,0.002,0.041,0.00499999,0.062,0.00599999c0.106,0.00899999,0.217,0.00999998,0.325,0.014c0.098,0.003,0.194,0.00999998,0.293,0.00999998l59.469,0C67.893,151.871,70.159,150.315,70.727,148.251z" fill="#353535"/>
 <path  opacity="0.35" d="M70.727,148.251c-0.606,0.895999,-2.843,1.566,-5.498,1.566L5.729,149.817c-3.117,0,-5.666,-0.923999,-5.666,-2.052l0,0.124c0.36,2.076,2.42,3.72099,4.986,3.95099c0.021,0.002,0.041,0.00499999,0.062,0.00599999c0.106,0.00899999,0.217,0.00999998,0.325,0.014c0.098,0.003,0.194,0.00999998,0.293,0.00999998l59.469,0C67.893,151.871,70.159,150.315,70.727,148.251z"/>
 <g >
  <g >
   <path  d="M66.331,15.798c1.985,0,4.536,1.702,4.536,3.78299l0,127.662c0,2.545,-2.551,4.62699,-5.669,4.62699L5.67,151.87c-3.118,0,-5.669,-2.082,-5.669,-4.62699L0.001,19.582c0,-2.081,2.551,-3.78299,6.802,-3.78299L66.331,15.799z" fill="#353535"/>
   <path  d="M70.867,49.3939L0.001,49.3939L0.001,19.582c0,-2.08,2.551,-3.78299,6.802,-3.78299l59.528,0c1.985,0,4.536,1.703,4.536,3.78299L70.867,49.3939z" fill="#D18D52"/>
  </g>
  <path  opacity="0.15" d="M69.604,147.766c0,0.574999,-1.594,1.067,-3.783,1.237L65.821,17.89c2.189,0.139,3.783,0.540999,3.783,1.012L69.604,147.766z" fill="#FFFFFF"/>
  <path  opacity="0.15" d="M1.145,147.766c0,0.574999,1.594,1.067,3.783,1.237L4.928,17.89c-2.189,0.139,-3.783,0.540999,-3.783,1.012L1.145,147.766z" fill="#FFFFFF"/>
  <path  opacity="0.35" d="M1.145,18.89c0,-0.585999,2.464,-1.065,5.477,-1.065l57.507,0c3.013,0,5.477,0.478999,5.477,1.065l0,-0.218c0,-1.052,-2.464,-1.913,-5.477,-1.913L6.621,16.759c-3.013,0,-5.477,0.860999,-5.477,1.913L1.144,18.89z" fill="#FFFFFF"/>
  <g  opacity="0.2">
   <path  d="M69.604,18.521c0,0,0,128.894,0,130.529c0.628,-0.297,0.628,-0.297,1,-0.645999c0,-0.624999,0,-126.22,0,-126.681C70.604,20.658,69.897,19.162,69.604,18.521z"/>
  </g>
  <g  opacity="0.2">
   <path  d="M1.145,18.521c0,0,0,128.894,0,130.529c-0.628,-0.297,-0.628,-0.297,-1,-0.645999c0,-0.624999,0,-126.22,0,-126.681C0.145,20.658,0.852,19.162,1.145,18.521z"/>
  </g>
 </g>
 <path  stroke="#000000" d="M67.713,4.41499c14.469,0,13.856,13.249,27.556,13.249" fill="none" stroke-width="3"/>
 <path  stroke="#FF0000" d="M67.713,4.41699c17.259,0,16.104,6.03499,27.556,6.03499" fill="none" stroke-width="3"/>
 <g >
  <path  d="M42.569,14.396c0.384,0.017,1.126,-0.672999,1.126,-0.672999s0.365,0.742999,1.012,0.791999c2.887,0.216,4.328,0.119,7.214,0.119c0.39,0,0.813,0.014,0.996,-0.490999c0.181,0.504999,0.603,0.490999,0.993,0.490999c2.945,0,4.413,0.0859999,7.36,-0.137c0.715,-0.0539999,1.017,-0.790999,1.017,-0.790999s0.422,0.718999,0.853,0.698999c0.519,-0.00999998,1.007,0.029,1.046,-0.417999c0.152,-1.734,0.295,-2.528,0.371,-4.08299c0.065,-1.324,-0.391,-1.901,-0.391,-3.37799c0,-1.017,-0.904,-2.17,-1.673,-2.17c-2.716,0,-4.074,0.0619999,-6.79,-0.143c-1.206,-0.0909999,-2.451,0.142,-2.786,1.229c-0.336,-1.088,-1.585,-1.323,-2.791,-1.232c-2.715,0.204,-4.072,0.146,-6.788,0.146c-0.768,0,-1.538,1.234,-1.538,2.171c0,0,-0.683,2.106,-0.574,3.67499s0.556,3.80199,0.556,3.80199C41.836,14.643,42.385,14.388,42.569,14.396z" fill="#919191"/>
  <g >
   <path  d="M64.074,12.063c-0.849,0.252,-1.446,0.491999,-1.446,0.491999c0.174,-1.797,0.276,-2.646,-0.001,-4.16299c0.52,0.0919999,1.006,0.175,1.477,0.25C64.382,9.94198,64.171,10.557,64.074,12.063z" fill="#F4F4F4"/>
   <path  d="M63.824,13.997c-0.747,-0.0389999,-1.273,-0.641999,-1.196,-1.441c0,0,0.598,-0.24,1.446,-0.491999C64.024,12.836,63.893,13.223,63.824,13.997z" fill="#B7B7B7"/>
   <path  d="M62.731,9.29499c-0.015,-0.598999,-0.095,-0.821999,-0.188,-1.341c-0.121,-0.679999,0.505,-1.354,1.258,-1.407c0,0.925999,0.131,1.295,0.302,2.095C63.545,8.64199,62.719,8.75299,62.731,9.29499z" fill="#999999"/>
  </g>
  <g >
   <path  d="M61.867,12.606c-0.062,0.834999,-0.548,1.543,-1.064,1.58c-2.619,0.189,-3.907,0.101,-6.508,0.101c-0.515,0,-0.932,-0.674999,-0.932,-1.51c0,0,0.187,-1.416,0.187,-2.246s-0.187,-2.157,-0.187,-2.157c0,-1.239,0.417,-2.104,0.932,-2.075c2.601,0.147,3.902,0.24,6.503,0.24c0.513,0,0.903,0.706999,1.001,1.416C62.032,9.65498,62.018,10.601,61.867,12.606z" fill="#F4F4F4"/>
   <g >
    <path  d="M60.803,14.186c-2.619,0.189,-3.907,0.101,-6.508,0.101c-0.515,0,-0.932,-0.674999,-0.932,-1.51c0,0,2.748,-0.12,4.409,-0.12c1.786,0,4.095,-0.0509999,4.095,-0.0509999C61.805,13.441,61.319,14.149,60.803,14.186z" fill="#B7B7B7"/>
   </g>
   <g >
    <path  d="M60.798,6.53899c-2.601,0,-3.902,-0.0929999,-6.503,-0.24c-0.515,-0.029,-0.932,0.640999,-0.932,1.472c0,0.245,0,0.367999,0,0.612999c1.22,0.395999,2.746,0.641999,4.407,0.642999c1.797,0.000999998,3.009,-0.598999,4.171,0.354999c0.002,-0.644999,-0.067,-0.878999,-0.143,-1.427C61.701,7.24599,61.311,6.53899,60.798,6.53899z" fill="#999999"/>
   </g>
  </g>
  <g >
   <path  d="M41.759,12.066c0.851,0.254,1.449,0.493999,1.449,0.493999c-0.171,-1.797,-0.272,-2.65,0,-4.16799c-0.52,0.0919999,-1.004,0.175,-1.476,0.25C41.457,9.94198,41.661,10.56,41.759,12.066z" fill="#F4F4F4"/>
   <path  d="M42.007,14c0.747,-0.0369999,1.277,-0.639999,1.201,-1.439c0,0,-0.599,-0.24,-1.449,-0.493999C41.809,12.839,41.938,13.226,42.007,14z" fill="#B7B7B7"/>
   <path  d="M43.105,9.62598c-0.006,-0.714999,0.072,-1.037,0.184,-1.672c0.119,-0.679999,-0.506,-1.354,-1.259,-1.407c0,0.925999,-0.129,1.295,-0.298,2.095C42.154,8.64199,43.101,8.97599,43.105,9.62598z" fill="#999999"/>
  </g>
  <g >
   <path  d="M43.968,12.612c0.062,0.834999,0.546,1.541,1.062,1.578c2.617,0.187,3.907,0.0969998,6.507,0.0969998c0.515,0,0.928,-0.674999,0.928,-1.51c0,0,-0.169,-1.522,-0.169,-2.435s0.169,-1.968,0.169,-1.968c0,-0.831999,-0.413,-2.108,-0.928,-2.08c-2.6,0.144,-3.901,0.244,-6.501,0.244c-0.513,0,-0.904,0.706999,-0.999,1.416C43.808,9.65498,43.821,10.607,43.968,12.612z" fill="#F4F4F4"/>
   <g >
    <path  d="M45.029,14.19c2.617,0.187,3.907,0.0969998,6.507,0.0969998c0.515,0,0.928,-0.674999,0.928,-1.51c0,0,-2.744,-0.12,-4.405,-0.12c-1.786,0,-4.091,-0.0449999,-4.091,-0.0449999C44.029,13.447,44.514,14.153,45.029,14.19z" fill="#B7B7B7"/>
   </g>
   <g >
    <path  d="M45.035,6.53899c2.6,0,3.901,-0.101,6.501,-0.244c0.515,-0.028,0.928,0.641999,0.928,1.474c0,0.245,0,0.367999,0,0.613999c-1.219,0.394999,-2.745,0.641999,-4.405,0.643999c-1.796,0.002,-3.2,-0.333999,-4.164,0.566999c-0.001,-0.710999,0.059,-1.019,0.142,-1.639C44.131,7.24599,44.522,6.53899,45.035,6.53899z" fill="#999999"/>
   </g>
  </g>
 </g>
 <path  d="M67.753,6.91699c0,0,0,-3.56299,0,-4.47999C67.753,0.737999,66.587,0,61.496,0L9.354,0C4.263,0,3.097,0.737999,3.097,2.437c0,0.916999,0,4.47999,0,4.47999L67.753,6.91699z" fill="#262626"/>
 <path  opacity="0.35" d="M62.767,0.565999c3.609,0,4.257,0.860999,4.257,1.913l0,0.218c0,-0.585999,-1.447,-1.065,-4.257,-1.065L8.082,1.632c-2.81,0,-4.257,0.478999,-4.257,1.065L3.825,2.479c0,-1.052,0.647,-1.913,4.257,-1.913L62.767,0.565999z" fill="#FFFFFF"/>
 <path  opacity="0.15" d="M5.586,1.815c-1.152,0.188,-1.761,0.509999,-1.761,0.881999l0,3.81699l1.761,0L5.586,1.815z" fill="#FFFFFF"/>
 <path  opacity="0.15" d="M65.263,1.815c1.152,0.188,1.761,0.509999,1.761,0.881999l0,3.81699l-1.761,0L65.263,1.815z" fill="#FFFFFF"/>
 <g >
  <g transform="matrix(1, 0, 0, 1, 22.6406, 75.9354)">
   <text  font-family="Droid Sans" fill="#FFFFFF" font-size="22">9</text>
  </g>
  <g transform="matrix(1, 0, 0, 1, 36.5776, 75.9359)">
   <text  font-family="Droid Sans" fill="#FFFFFF" font-size="22">v</text>
  </g>
 </g>
</g>
</g></g></g><g partID='160860'><g xmlns="http://www.w3.org/2000/svg" id="breadboard">
 <text xmlns="http://www.w3.org/2000/svg" font-family="Droid Sans" xml:space="preserve" xmlns:xml="http://www.w3.org/XML/1998/namespace" x="309.379" y="12.1061" fill="#000000" id="label" stroke-width="0" font-size="13.4513" text-anchor="middle">This isn't exact, but should give you the idea</text>
</g>
</g><g partID='154590'><line stroke-linecap='round' stroke='#000000' x1='334.001' y1='170.085' x2='334.001' y2='57.8822' stroke-width='3.2' /><line stroke-linecap='round' stroke='#404040' x1='334.001' y1='170.085' x2='334.001' y2='57.8822' stroke-width='1.6' /></g><g partID='154520'><line stroke-linecap='round' stroke='#000000' x1='334.001' y1='57.8824' x2='294.942' y2='57.8824' stroke-width='3.2' /><line stroke-linecap='round' stroke='#404040' x1='334.001' y1='57.8824' x2='294.942' y2='57.8824' stroke-width='1.6' /></g><g partID='154450'><line stroke-linecap='round' stroke='#000000' x1='294.942' y1='57.8824' x2='294.942' y2='85.0592' stroke-width='3.2' /><line stroke-linecap='round' stroke='#404040' x1='294.942' y1='57.8824' x2='294.942' y2='85.0592' stroke-width='1.6' /></g><g partID='154380'><line stroke-linecap='round' stroke='#000000' x1='302.45' y1='170.085' x2='334' y2='170.085' stroke-width='3.2' /><line stroke-linecap='round' stroke='#404040' x1='302.45' y1='170.085' x2='334' y2='170.085' stroke-width='1.6' /></g><g partID='154870'><line stroke-linecap='round' stroke='#000000' x1='205.367' y1='162.885' x2='205.367' y2='145.56' stroke-width='3.2' /><line stroke-linecap='round' stroke='#404040' x1='205.367' y1='162.885' x2='205.367' y2='145.56' stroke-width='1.6' /></g><g partID='154800'><line stroke-linecap='round' stroke='#000000' x1='205.367' y1='145.56' x2='222.942' y2='145.56' stroke-width='3.2' /><line stroke-linecap='round' stroke='#404040' x1='205.367' y1='145.56' x2='222.942' y2='145.56' stroke-width='1.6' /></g><g partID='154730'><line stroke-linecap='round' stroke='#000000' x1='222.942' y1='145.56' x2='222.942' y2='135.459' stroke-width='3.2' /><line stroke-linecap='round' stroke='#404040' x1='222.942' y1='145.56' x2='222.942' y2='135.459' stroke-width='1.6' /></g><g partID='154660'><line stroke-linecap='round' stroke='#000000' x1='223.25' y1='162.885' x2='205.367' y2='162.885' stroke-width='3.2' /><line stroke-linecap='round' stroke='#404040' x1='223.25' y1='162.885' x2='205.367' y2='162.885' stroke-width='1.6' /></g><g partID='155610'><line stroke-linecap='round' stroke='#000000' x1='255.33' y1='212.607' x2='206.277' y2='212.607' stroke-width='3.2' /><line stroke-linecap='round' stroke='#404040' x1='255.33' y1='212.607' x2='206.277' y2='212.607' stroke-width='1.6' /></g><g partID='155540'><line stroke-linecap='round' stroke='#000000' x1='206.277' y1='212.607' x2='206.277' y2='177.285' stroke-width='3.2' /><line stroke-linecap='round' stroke='#404040' x1='206.277' y1='212.607' x2='206.277' y2='177.285' stroke-width='1.6' /></g><g partID='155470'><line stroke-linecap='round' stroke='#000000' x1='206.277' y1='177.285' x2='223.25' y2='177.285' stroke-width='3.2' /><line stroke-linecap='round' stroke='#404040' x1='206.277' y1='177.285' x2='223.25' y2='177.285' stroke-width='1.6' /></g><g partID='155400'><line stroke-linecap='round' stroke='#000000' x1='255.33' y1='238.905' x2='255.33' y2='212.607' stroke-width='3.2' /><line stroke-linecap='round' stroke='#404040' x1='255.33' y1='238.905' x2='255.33' y2='212.607' stroke-width='1.6' /></g><g partID='155890'><line stroke-linecap='round' stroke='#000000' x1='334.001' y1='212' x2='334.001' y2='177.285' stroke-width='3.2' /><line stroke-linecap='round' stroke='#404040' x1='334.001' y1='212' x2='334.001' y2='177.285' stroke-width='1.6' /></g><g partID='155820'><line stroke-linecap='round' stroke='#000000' x1='334.001' y1='177.285' x2='302.45' y2='177.285' stroke-width='3.2' /><line stroke-linecap='round' stroke='#404040' x1='334.001' y1='177.285' x2='302.45' y2='177.285' stroke-width='1.6' /></g><g partID='155750'><line stroke-linecap='round' stroke='#000000' x1='262.53' y1='212' x2='334.001' y2='212' stroke-width='3.2' /><line stroke-linecap='round' stroke='#404040' x1='262.53' y1='212' x2='334.001' y2='212' stroke-width='1.6' /></g><g partID='155680'><line stroke-linecap='round' stroke='#000000' x1='262.53' y1='238.905' x2='262.53' y2='212' stroke-width='3.2' /><line stroke-linecap='round' stroke='#404040' x1='262.53' y1='238.905' x2='262.53' y2='212' stroke-width='1.6' /></g><g partID='156610'><line stroke-linecap='round' stroke='#000000' x1='261.964' y1='314.949' x2='337.947' y2='315.782' stroke-width='3.2' /><line stroke-linecap='round' stroke='#404040' x1='261.964' y1='314.949' x2='337.947' y2='315.782' stroke-width='1.6' /></g><g partID='157050'><line stroke-linecap='round' stroke='#000000' x1='245.34' y1='226.946' x2='207.583' y2='226.946' stroke-width='3.2' /><line stroke-linecap='round' stroke='#404040' x1='245.34' y1='226.946' x2='207.583' y2='226.946' stroke-width='1.6' /></g><g partID='156940'><line stroke-linecap='round' stroke='#000000' x1='207.583' y1='314.95' x2='254.743' y2='314.949' stroke-width='3.2' /><line stroke-linecap='round' stroke='#404040' x1='207.583' y1='314.95' x2='254.743' y2='314.949' stroke-width='1.6' /></g><g partID='156830'><line stroke-linecap='round' stroke='#000000' x1='207.583' y1='226.946' x2='207.583' y2='314.95' stroke-width='3.2' /><line stroke-linecap='round' stroke='#404040' x1='207.583' y1='226.946' x2='207.583' y2='314.95' stroke-width='1.6' /></g><g partID='156680'><line stroke-linecap='round' stroke='#000000' x1='255.33' y1='238.905' x2='245.34' y2='226.945' stroke-width='3.2' /><line stroke-linecap='round' stroke='#404040' x1='255.33' y1='238.905' x2='245.34' y2='226.945' stroke-width='1.6' /></g><g partID='157380'><line stroke-linecap='round' stroke='#000000' x1='345.127' y1='226.946' x2='345.127' y2='315.782' stroke-width='3.2' /><line stroke-linecap='round' stroke='#404040' x1='345.127' y1='226.946' x2='345.127' y2='315.782' stroke-width='1.6' /></g><g partID='157270'><line stroke-linecap='round' stroke='#000000' x1='275.306' y1='226.946' x2='345.127' y2='226.946' stroke-width='3.2' /><line stroke-linecap='round' stroke='#404040' x1='275.306' y1='226.946' x2='345.127' y2='226.946' stroke-width='1.6' /></g><g partID='157160'><line stroke-linecap='round' stroke='#000000' x1='262.53' y1='238.905' x2='275.306' y2='226.945' stroke-width='3.2' /><line stroke-linecap='round' stroke='#404040' x1='262.53' y1='238.905' x2='275.306' y2='226.945' stroke-width='1.6' /></g><g partID='159780'><line stroke-linecap='round' stroke='#000000' x1='375.25' y1='66.329' x2='375.25' y2='99.0505' stroke-width='3.2' /><line stroke-linecap='round' stroke='#404040' x1='375.25' y1='66.329' x2='375.25' y2='99.0505' stroke-width='1.6' /></g><g partID='159710'><line stroke-linecap='round' stroke='#000000' x1='301.675' y1='66.329' x2='375.25' y2='66.329' stroke-width='3.2' /><line stroke-linecap='round' stroke='#404040' x1='301.675' y1='66.329' x2='375.25' y2='66.329' stroke-width='1.6' /></g><g partID='159640'><line stroke-linecap='round' stroke='#000000' x1='302.143' y1='85.0592' x2='301.676' y2='66.329' stroke-width='3.2' /><line stroke-linecap='round' stroke='#404040' x1='302.143' y1='85.0592' x2='301.676' y2='66.329' stroke-width='1.6' /></g><g partID='160070'><line stroke-linecap='round' stroke='#000000' x1='382.43' y1='33.966' x2='382.43' y2='99.0505' stroke-width='3.2' /><line stroke-linecap='round' stroke='#404040' x1='382.43' y1='33.966' x2='382.43' y2='99.0505' stroke-width='1.6' /></g><g partID='159960'><line stroke-linecap='round' stroke='#000000' x1='295.083' y1='33.966' x2='382.43' y2='33.966' stroke-width='3.2' /><line stroke-linecap='round' stroke='#404040' x1='295.083' y1='33.966' x2='382.43' y2='33.966' stroke-width='1.6' /></g><g partID='159850'><line stroke-linecap='round' stroke='#000000' x1='294.942' y1='85.0592' x2='295.083' y2='33.966' stroke-width='3.2' /><line stroke-linecap='round' stroke='#404040' x1='294.942' y1='85.0592' x2='295.083' y2='33.966' stroke-width='1.6' /></g><g partID='155980' id='partLabel'><g transform='translate(120.804,359.338)' ><g font-size='9' font-style='normal' font-weight='normal' fill='#000000' font-family="'DroidSans'" id='breadboardLabel' fill-opacity='1' stroke='none' ><text x='0' y='6.75'>Sprinkler Valve Solenoid</text></g></g></g><g partID='156040' id='partLabel'><g transform='translate(362.257,323.423)' ><g font-size='9' font-style='normal' font-weight='normal' fill='#000000' font-family="'DroidSans'" id='breadboardLabel' fill-opacity='1' stroke='none' ><text x='0' y='6.75'>Battery in Push Button Tube</text><text x='0' y='15.75'>9V</text></g></g></g><g partID='159150' id='partLabel'><g transform='translate(399.559,106.691)' ><g font-size='9' font-style='normal' font-weight='normal' fill='#000000' font-family="'DroidSans'" id='breadboardLabel' fill-opacity='1' stroke='none' ><text x='0' y='6.75'>Battery for Relay Shield</text><text x='0' y='15.75'>9V</text></g></g></g><g partID='155370' id='partLabel'><g transform='translate(282.592,251.673)' ><g font-size='9' font-style='normal' font-weight='normal' fill='#000000' font-family="'DroidSans'" id='breadboardLabel' fill-opacity='1' stroke='none' ><text x='0' y='6.75'>Push Button</text></g></g></g><g partID='154110' id='partLabel'><g transform='translate(134.896,102.651)' ><g font-size='9' font-style='normal' font-weight='normal' fill='#000000' font-family="'DroidSans'" id='breadboardLabel' fill-opacity='1' stroke='none' ><text x='0' y='6.75'>Spark Core</text></g></g></g><g partID='154350' id='partLabel'><g transform='translate(127.49,166.028)' ><g font-size='9' font-style='normal' font-weight='normal' fill='#000000' font-family="'DroidSans'" id='breadboardLabel' fill-opacity='1' stroke='none' ><text x='0' y='6.75'>Relay on Shield</text></g></g></g></svg>